StackSansNotch.glyphspackage
{
color = 6;
glyphname = dollar;
layers = (
{
background = {
shapes = (
{
closed = 1;
nodes = (
(28,227,l),
(33,91,o),
(153,-12,o),
(316,-12,cs),
(490,-12,o),
(594,62,o),
(594,193,cs),
(594,469,o),
(114,310,o),
(114,510,cs),
(114,592,o),
(179,644,o),
(307,644,cs),
(436,644,o),
(495,584,o),
(501,478,c),
(583,478,l),
(583,619,o),
(462,716,o),
(312,716,cs),
(142,716,o),
(36,622,o),
(36,510,cs),
(36,231,o),
(516,381,o),
(516,193,cs),
(516,112,o),
(440,60,o),
(322,60,cs),
(206,60,o),
(118,121,o),
(111,227,c)
);
}
);
};
layerId = "A0F3C0B3-6058-4691-93DD-C4034CAB0732";
shapes = (
{
closed = 1;
nodes = (
(497,4,o),
(589,74,o),
(589,194,cs),
(589,446,o),
(122,319,o),
(122,510,cs),
(122,575,o),
(169,621,o),
(310,621,cs),
(453,621,o),
(491,568,o),
(496,468,c),
(577,468,l),
(577,601,o),
(477,693,o),
(314,693,cs),
(121,693,o),
(44,604,o),
(44,500,cs),
(44,244,o),
(511,365,o),
(511,189,cs),
(511,122,o),
(460,76,o),
(322,76,cs),
(185,76,o),
(127,133,o),
(121,230,c),
(40,230,l),
(44,101,o),
(143,4,o),
(317,4,cs)
);
},
{
closed = 1;
nodes = (
(346,-61,l),
(346,750,l),
(276,750,l),
(276,-61,l)
);
}
);
width = 629;
},
{
layerId = "7B07347B-11DE-4909-BA20-F43005BA30D7";
shapes = (
{
closed = 1;
nodes = (
(501,-2,o),
(598,69,o),
(598,204,cs),
(598,471,o),
(195,368,o),
(195,500,cs),
(195,539,o),
(229,569,o),
(313,569,cs),
(391,569,o),
(431,536,o),
(437,469,c),
(584,469,l),
(584,605,o),
(472,702,o),
(318,702,cs),
(143,702,o),
(44,608,o),
(44,498,cs),
(44,221,o),
(447,316,o),
(447,195,cs),
(447,147,o),
(403,127,o),
(327,127,cs),
(242,127,o),
(189,165,o),
(182,228,c),
(35,228,l),
(40,99,o),
(149,-2,o),
(322,-2,cs)
);
},
{
closed = 1;
nodes = (
(372,-61,l),
(372,750,l),
(262,750,l),
(262,-61,l)
);
}
);
width = 633;
},
{
associatedMasterId = "A0F3C0B3-6058-4691-93DD-C4034CAB0732";
layerId = "344C2881-1F5C-4107-A90A-DB42C32F6FE5";
name = "2 Sep 25 at 13:37";
shapes = (
{
closed = 1;
nodes = (
(40,227,l),
(45,91,o),
(165,-12,o),
(328,-12,cs),
(502,-12,o),
(606,62,o),
(606,193,cs),
(606,469,o),
(126,310,o),
(126,510,cs),
(126,592,o),
(191,644,o),
(319,644,cs),
(448,644,o),
(507,584,o),
(513,478,c),
(595,478,l),
(595,619,o),
(474,716,o),
(324,716,cs),
(154,716,o),
(48,622,o),
(48,510,cs),
(48,231,o),
(528,381,o),
(528,193,cs),
(528,112,o),
(452,60,o),
(334,60,cs),
(218,60,o),
(130,121,o),
(123,227,c)
);
},
{
closed = 1;
nodes = (
(291,-50,l),
(354,-50,l),
(354,750,l),
(291,750,l)
);
}
);
width = 646;
},
{
associatedMasterId = "A0F3C0B3-6058-4691-93DD-C4034CAB0732";
layerId = "980CC652-98E1-4810-A340-E704CFB38C6C";
name = "2 Sep 25 at 17:30";
shapes = (
{
closed = 1;
nodes = (
(40,230,l),
(44,101,o),
(143,4,o),
(277,4,cs),
(420,4,o),
(506,74,o),
(506,198,cs),
(506,449,o),
(125,319,o),
(125,504,cs),
(125,575,o),
(167,621,o),
(270,621,cs),
(373,621,o),
(412,568,o),
(417,468,c),
(497,468,l),
(497,601,o),
(397,693,o),
(274,693,cs),
(134,693,o),
(47,604,o),
(47,500,cs),
(47,244,o),
(428,365,o),
(428,198,cs),
(428,122,o),
(377,76,o),
(282,76,cs),
(185,76,o),
(126,133,o),
(120,230,c)
);
},
{
closed = 1;
nodes = (
(236,-61,l),
(306,-61,l),
(306,750,l),
(236,750,l)
);
}
);
width = 546;
}
);
metricRight = "=S";
unicode = 36;
}
{
color = 6;
glyphname = ampersand;
kernLeft = KO_ampersand;
kernRight = KO_ampersand;
layers = (
{
layerId = "A0F3C0B3-6058-4691-93DD-C4034CAB0732";
shapes = (
{
closed = 1;
nodes = (
(477,503,l),
(477,0,l),
(552,0,l),
(552,503,l)
);
},
{
closed = 1;
nodes = (
(334,386,ls),
(203,386,o),
(142,419,o),
(142,509,cs),
(142,597,o),
(192,634,o),
(339,634,cs),
(477,634,l),
(477,700,l),
(339,700,ls),
(187,700,o),
(64,655,o),
(64,505,cs),
(64,429,o),
(131,348,o),
(235,348,c),
(235,366,l),
(131,366,o),
(30,303,o),
(30,191,cs),
(30,40,o),
(153,0,o),
(305,0,cs),
(497,0,l),
(497,56,l),
(305,56,ls),
(171,56,o),
(108,95,o),
(108,191,cs),
(108,276,o),
(171,320,o),
(302,320,cs),
(636,320,l),
(636,386,l)
);
}
);
width = 661;
},
{
layerId = "7B07347B-11DE-4909-BA20-F43005BA30D7";
shapes = (
{
closed = 1;
nodes = (
(418,503,l),
(418,0,l),
(563,0,l),
(563,503,l)
);
},
{
closed = 1;
nodes = (
(350,416,ls),
(284,416,o),
(226,425,o),
(226,495,cs),
(226,565,o),
(284,574,o),
(350,574,cs),
(418,574,l),
(418,700,l),
(350,700,ls),
(198,700,o),
(75,656,o),
(75,495,cs),
(75,430,o),
(103,347,o),
(196,342,c),
(196,375,l),
(106,371,o),
(36,302,o),
(36,211,cs),
(36,50,o),
(159,0,o),
(311,0,cs),
(508,0,l),
(508,126,l),
(311,126,ls),
(245,126,o),
(187,141,o),
(187,211,cs),
(187,281,o),
(245,290,o),
(311,290,cs),
(657,290,l),
(657,416,l)
);
}
);
width = 677;
}
);
metricRight = "=ampersand.ss01";
unicode = 38;
}
{
color = 6;
glyphname = asterisk;
kernLeft = KO_asterisk;
kernRight = KO_asterisk;
layers = (
{
layerId = "A0F3C0B3-6058-4691-93DD-C4034CAB0732";
shapes = (
{
closed = 1;
nodes = (
(310,484,l),
(209,605,l),
(192,593,l),
(175,580,l),
(259,447,l)
);
},
{
closed = 1;
nodes = (
(209,580,l),
(192,593,l),
(175,605,l),
(74,484,l),
(125,447,l)
);
},
{
closed = 1;
nodes = (
(192,593,l),
(198,613,l),
(52,671,l),
(33,612,l),
(185,573,l)
);
},
{
closed = 1;
nodes = (
(192,593,l),
(213,593,l),
(223,750,l),
(161,750,l),
(171,593,l)
);
},
{
closed = 1;
nodes = (
(351,612,l),
(332,671,l),
(186,613,l),
(192,593,l),
(199,573,l)
);
}
);
width = 384;
},
{
layerId = "7B07347B-11DE-4909-BA20-F43005BA30D7";
shapes = (
{
closed = 1;
nodes = (
(333,496,l),
(232,617,l),
(199,593,l),
(166,569,l),
(250,436,l)
);
},
{
closed = 1;
nodes = (
(232,569,l),
(199,593,l),
(166,617,l),
(65,496,l),
(148,436,l)
);
},
{
closed = 1;
nodes = (
(199,593,l),
(211,632,l),
(65,690,l),
(34,593,l),
(186,554,l)
);
},
{
closed = 1;
nodes = (
(199,593,l),
(240,593,l),
(250,750,l),
(148,750,l),
(158,593,l)
);
},
{
closed = 1;
nodes = (
(364,593,l),
(333,690,l),
(187,632,l),
(199,593,l),
(212,554,l)
);
}
);
width = 398;
}
);
unicode = 42;
}
{
color = 6;
glyphname = one;
layers = (
{
layerId = "A0F3C0B3-6058-4691-93DD-C4034CAB0732";
shapes = (
{
closed = 1;
nodes = (
(188,0,l),
(263,0,l),
(263,634,l),
(188,634,l)
);
},
{
closed = 1;
nodes = (
(20,634,l),
(188,634,l),
(188,700,l),
(20,700,l)
);
},
{
closed = 1;
nodes = (
(20,0,l),
(215,0,l),
(215,76,l),
(20,76,l)
);
},
{
closed = 1;
nodes = (
(236,0,l),
(431,0,l),
(431,76,l),
(236,76,l)
);
}
);
width = 451;
},
{
layerId = "7B07347B-11DE-4909-BA20-F43005BA30D7";
shapes = (
{
closed = 1;
nodes = (
(188,0,l),
(333,0,l),
(333,634,l),
(188,634,l)
);
},
{
closed = 1;
nodes = (
(20,574,l),
(188,574,l),
(188,700,l),
(20,700,l)
);
},
{
closed = 1;
nodes = (
(20,0,l),
(188,0,l),
(188,126,l),
(20,126,l)
);
},
{
closed = 1;
nodes = (
(333,0,l),
(501,0,l),
(501,126,l),
(333,126,l)
);
}
);
width = 521;
}
);
unicode = 49;
userData = {
KernOnSpecialSpacing = {
L = NoKerning;
R = NoKerning;
};
};
}
{
color = 6;
glyphname = two;
layers = (
{
background = {
shapes = (
{
closed = 1;
nodes = (
(547,0,l),
(547,66,l),
(119,66,l),
(191,240,o),
(545,258,o),
(545,481,cs),
(545,613,o),
(459,716,o),
(289,716,cs),
(139,716,o),
(34,619,o),
(34,478,c),
(111,478,l),
(117,574,o),
(169,644,o),
(294,644,cs),
(395,644,o),
(467,588,o),
(467,481,cs),
(467,308,o),
(94,284,o),
(28,66,c),
(119,66,l),
(119,0,l)
);
}
);
};
layerId = "A0F3C0B3-6058-4691-93DD-C4034CAB0732";
shapes = (
{
closed = 1;
nodes = (
(550,0,l),
(550,68,l),
(119,68,l),
(176,299,o),
(547,255,o),
(547,508,cs),
(547,613,o),
(466,716,o),
(296,716,cs),
(146,716,o),
(36,619,o),
(36,478,c),
(113,478,l),
(119,574,o),
(176,644,o),
(301,644,cs),
(402,644,o),
(469,588,o),
(469,504,cs),
(469,311,o),
(86,344,o),
(30,68,c),
(119,68,l),
(119,0,l)
);
}
);
width = 580;
},
{
background = {
shapes = (
{
closed = 1;
nodes = (
(542,0,l),
(542,126,l),
(223,126,l),
(322,243,o),
(540,289,o),
(540,481,cs),
(540,613,o),
(444,716,o),
(274,716,cs),
(124,716,o),
(9,619,o),
(9,478,c),
(161,478,l),
(167,544,o),
(200,584,o),
(279,584,cs),
(349,584,o),
(389,548,o),
(389,481,cs),
(389,343,o),
(77,282,o),
(14,66,c),
(169,66,l),
(169,0,l)
);
}
);
};
layerId = "7B07347B-11DE-4909-BA20-F43005BA30D7";
shapes = (
{
closed = 1;
nodes = (
(548,0,l),
(548,126,l),
(211,126,l),
(297,285,o),
(546,276,o),
(546,481,cs),
(546,613,o),
(450,716,o),
(280,716,cs),
(130,716,o),
(15,619,o),
(15,478,c),
(167,478,l),
(173,544,o),
(206,584,o),
(285,584,cs),
(355,584,o),
(395,548,o),
(395,481,cs),
(395,339,o),
(64,350,o),
(15,68,c),
(169,68,l),
(169,0,l)
);
}
);
width = 573;
},
{
associatedMasterId = "A0F3C0B3-6058-4691-93DD-C4034CAB0732";
layerId = "75711D49-EF87-4E74-BE12-FADCDDF898B1";
name = "1 Sep 25 at 14:30";
shapes = (
{
closed = 1;
nodes = (
(553,0,l),
(553,66,l),
(125,66,l),
(197,240,o),
(551,258,o),
(551,481,cs),
(551,613,o),
(465,716,o),
(295,716,cs),
(145,716,o),
(40,619,o),
(40,478,c),
(117,478,l),
(123,574,o),
(175,644,o),
(300,644,cs),
(401,644,o),
(473,588,o),
(473,481,cs),
(473,308,o),
(100,284,o),
(34,66,c),
(125,66,l),
(124,0,l)
);
}
);
width = 594;
},
{
associatedMasterId = "A0F3C0B3-6058-4691-93DD-C4034CAB0732";
layerId = "F7D14B38-DBF5-43BD-AADB-0393101EAEDE";
name = "2 Sep 25 at 17:06";
shapes = (
{
closed = 1;
nodes = (
(549,0,l),
(549,66,l),
(121,66,l),
(193,240,o),
(547,258,o),
(547,481,cs),
(547,613,o),
(461,716,o),
(291,716,cs),
(141,716,o),
(36,619,o),
(36,478,c),
(113,478,l),
(119,574,o),
(171,644,o),
(296,644,cs),
(397,644,o),
(469,588,o),
(469,481,cs),
(469,308,o),
(96,284,o),
(30,66,c),
(121,66,l),
(121,0,l)
);
}
);
width = 579;
}
);
unicode = 50;
userData = {
KernOnSpecialSpacing = {
L = NoKerning;
R = NoKerning;
};
};
}
{
color = 6;
glyphname = three;
layers = (
{
layerId = "7B07347B-11DE-4909-BA20-F43005BA30D7";
shapes = (
{
closed = 1;
nodes = (
(243,290,l),
(287,290,ls),
(389,290,o),
(426,257,o),
(426,200,cs),
(426,152,o),
(391,116,o),
(313,116,cs),
(234,116,o),
(188,156,o),
(182,222,c),
(30,222,l),
(30,81,o),
(158,-16,o),
(308,-16,cs),
(478,-16,o),
(577,78,o),
(577,190,cs),
(577,279,o),
(524,359,o),
(384,367,c),
(383,336,l),
(519,345,o),
(572,421,o),
(572,510,cs),
(572,622,o),
(469,716,o),
(309,716,cs),
(159,716,o),
(30,619,o),
(30,478,c),
(182,478,l),
(188,544,o),
(235,584,o),
(314,584,cs),
(389,584,o),
(421,551,o),
(421,510,cs),
(421,453,o),
(389,420,o),
(290,420,cs),
(243,420,l)
);
}
);
width = 605;
},
{
layerId = "A0F3C0B3-6058-4691-93DD-C4034CAB0732";
shapes = (
{
closed = 1;
nodes = (
(241,320,l),
(314,320,ls),
(426,320,o),
(497,281,o),
(497,200,cs),
(497,122,o),
(429,56,o),
(311,56,cs),
(202,56,o),
(121,126,o),
(115,222,c),
(38,222,l),
(38,81,o),
(156,-16,o),
(311,-16,cs),
(476,-16,o),
(575,78,o),
(575,198,cs),
(575,308,o),
(487,384,o),
(317,370,c),
(317,336,l),
(489,332,o),
(570,421,o),
(570,510,cs),
(570,622,o),
(482,716,o),
(310,716,cs),
(167,716,o),
(38,619,o),
(38,478,c),
(115,478,l),
(121,580,o),
(203,644,o),
(312,644,cs),
(427,644,o),
(492,581,o),
(492,510,cs),
(492,427,o),
(437,390,o),
(311,390,cs),
(241,390,l)
);
}
);
width = 608;
},
{
associatedMasterId = "A0F3C0B3-6058-4691-93DD-C4034CAB0732";
layerId = "EFCBA075-10D6-4DFF-A1B7-8D88AFF4A688";
name = "2 Sep 25 at 11:59";
shapes = (
{
closed = 1;
nodes = (
(251,320,l),
(417,320,o),
(504,295,o),
(504,200,cs),
(504,122,o),
(439,56,o),
(321,56,cs),
(202,56,o),
(126,126,o),
(120,222,c),
(38,222,l),
(38,81,o),
(166,-16,o),
(316,-16,cs),
(486,-16,o),
(585,78,o),
(585,190,cs),
(585,279,o),
(512,359,o),
(372,367,c),
(371,336,l),
(507,345,o),
(580,421,o),
(580,510,cs),
(580,622,o),
(477,716,o),
(317,716,cs),
(167,716,o),
(38,619,o),
(38,478,c),
(120,478,l),
(116,574,o),
(203,644,o),
(322,644,cs),
(437,644,o),
(499,581,o),
(499,510,cs),
(499,415,o),
(417,390,o),
(251,390,c)
);
}
);
width = 618;
}
);
metricRight = "=O";
unicode = 51;
userData = {
KernOnSpecialSpacing = {
L = NoKerning;
R = NoKerning;
};
};
}
{
color = 6;
glyphname = seven;
layers = (
{
layerId = "A0F3C0B3-6058-4691-93DD-C4034CAB0732";
shapes = (
{
closed = 1;
nodes = (
(278,0,l),
(278,314,o),
(372,519,o),
(490,631,c),
(490,634,l),
(401,634,l),
(401,700,l),
(25,700,l),
(25,634,l),
(401,634,l),
(281,487,o),
(201,260,o),
(201,0,c)
);
}
);
width = 515;
},
{
layerId = "7B07347B-11DE-4909-BA20-F43005BA30D7";
shapes = (
{
closed = 1;
nodes = (
(313,0,l),
(313,314,o),
(387,489,o),
(505,601,c),
(505,634,l),
(378,634,l),
(378,700,l),
(20,700,l),
(20,574,l),
(298,574,l),
(207,428,o),
(161,227,o),
(161,0,c)
);
}
);
width = 525;
}
);
unicode = 55;
userData = {
KernOnSpecialSpacing = {
L = NoKerning;
R = NoKerning;
};
};
}
{
color = 6;
glyphname = semicolon;
kernLeft = KO_colon;
kernRight = KO_colon;
layers = (
{
layerId = "A0F3C0B3-6058-4691-93DD-C4034CAB0732";
shapes = (
{
closed = 1;
nodes = (
(106,-71,o),
(135,-47,o),
(135,0,cs),
(135,93,l),
(40,93,l),
(40,0,l),
(89,0,l),
(89,-19,o),
(82,-30,o),
(62,-30,c),
(62,-71,l)
);
},
{
closed = 1;
nodes = (
(129,467,l),
(129,560,l),
(40,560,l),
(40,467,l)
);
}
);
width = 175;
},
{
layerId = "7B07347B-11DE-4909-BA20-F43005BA30D7";
shapes = (
{
closed = 1;
nodes = (
(142,-114,o),
(188,-76,o),
(188,0,cs),
(188,153,l),
(35,153,l),
(35,0,l),
(113,0,l),
(113,-30,o),
(103,-48,o),
(70,-48,c),
(70,-114,l)
);
},
{
closed = 1;
nodes = (
(188,407,l),
(188,560,l),
(35,560,l),
(35,407,l)
);
}
);
width = 223;
}
);
metricRight = "=colon";
unicode = 59;
}
{
color = 6;
glyphname = F;
kernLeft = KO_H;
kernRight = KO_F;
layers = (
{
anchors = (
{
name = bottom;
pos = (291,0);
},
{
name = top;
pos = (291,700);
}
);
layerId = "A0F3C0B3-6058-4691-93DD-C4034CAB0732";
shapes = (
{
closed = 1;
nodes = (
(132,298,l),
(494,298,l),
(494,366,l),
(132,366,l)
);
},
{
closed = 1;
nodes = (
(132,632,l),
(534,632,l),
(534,700,l),
(132,700,l)
);
},
{
closed = 1;
nodes = (
(57,632,l),
(57,0,l),
(132,0,l),
(132,632,l)
);
}
);
width = 581;
},
{
anchors = (
{
name = bottom;
pos = (286,0);
},
{
name = top;
pos = (286,700);
}
);
layerId = "7B07347B-11DE-4909-BA20-F43005BA30D7";
shapes = (
{
closed = 1;
nodes = (
(197,269,l),
(489,269,l),
(489,395,l),
(197,395,l)
);
},
{
closed = 1;
nodes = (
(197,574,l),
(529,574,l),
(529,700,l),
(197,700,l)
);
},
{
closed = 1;
nodes = (
(52,634,l),
(52,0,l),
(197,0,l),
(197,634,l)
);
}
);
width = 571;
}
);
metricLeft = "=H";
metricRight = "=E";
unicode = 70;
userData = {
KernOnName = F;
};
}
{
color = 6;
glyphname = G;
kernLeft = KO_O;
kernRight = KO_G;
layers = (
{
anchors = (
{
name = bottom;
pos = (374,0);
},
{
name = top;
pos = (374,700);
}
);
layerId = "7B07347B-11DE-4909-BA20-F43005BA30D7";
shapes = (
{
closed = 1;
nodes = (
(593,-16,o),
(712,129,o),
(693,388,c),
(374,388,l),
(374,262,l),
(589,262,l),
(543,296,l),
(553,184,o),
(492,116,o),
(374,116,cs),
(237,116,o),
(179,231,o),
(179,351,cs),
(179,469,o),
(237,584,o),
(374,584,cs),
(474,584,o),
(522,531,o),
(536,441,c),
(690,441,l),
(669,609,o),
(562,716,o),
(374,716,cs),
(151,716,o),
(28,552,o),
(28,351,cs),
(28,148,o),
(151,-16,o),
(374,-16,cs)
);
}
);
width = 723;
},
{
anchors = (
{
name = bottom;
pos = (366,0);
},
{
name = top;
pos = (366,700);
}
);
layerId = "A0F3C0B3-6058-4691-93DD-C4034CAB0732";
shapes = (
{
closed = 1;
nodes = (
(576,-16,o),
(711,91,o),
(698,358,c),
(379,358,l),
(379,292,l),
(667,292,l),
(621,319,l),
(629,194,o),
(570,56,o),
(379,56,cs),
(202,56,o),
(111,191,o),
(111,351,cs),
(111,509,o),
(202,644,o),
(379,644,cs),
(549,644,o),
(602,531,o),
(616,441,c),
(695,441,l),
(674,609,o),
(567,716,o),
(379,716,cs),
(156,716,o),
(33,552,o),
(33,351,cs),
(33,148,o),
(156,-16,o),
(379,-16,cs)
);
}
);
width = 732;
}
);
metricLeft = "=O";
metricRight = "=O";
unicode = 71;
}
{
color = 6;
glyphname = M;
kernLeft = KO_H;
kernRight = KO_H;
layers = (
{
anchors = (
{
name = bottom;
pos = (422,0);
},
{
name = top;
pos = (422,700);
}
);
layerId = "7B07347B-11DE-4909-BA20-F43005BA30D7";
shapes = (
{
closed = 1;
nodes = (
(457,0,l),
(286,700,l),
(138,700,l),
(319,0,l)
);
},
{
closed = 1;
nodes = (
(705,700,l),
(557,700,l),
(386,0,l),
(524,0,l)
);
},
{
closed = 1;
nodes = (
(52,0,l),
(192,0,l),
(192,700,l),
(52,700,l)
);
},
{
closed = 1;
nodes = (
(651,0,l),
(791,0,l),
(791,700,l),
(651,700,l)
);
}
);
width = 843;
},
{
anchors = (
{
name = bottom;
pos = (377,0);
},
{
name = top;
pos = (377,700);
}
);
layerId = "A0F3C0B3-6058-4691-93DD-C4034CAB0732";
shapes = (
{
closed = 1;
nodes = (
(396,0,l),
(171,700,l),
(93,700,l),
(324,0,l)
);
},
{
closed = 1;
nodes = (
(660,700,l),
(582,700,l),
(357,0,l),
(429,0,l)
);
},
{
closed = 1;
nodes = (
(57,0,l),
(127,0,l),
(127,700,l),
(57,700,l)
);
},
{
closed = 1;
nodes = (
(626,0,l),
(696,0,l),
(696,700,l),
(626,700,l)
);
}
);
width = 753;
}
);
metricLeft = "=H";
metricRight = "=H";
unicode = 77;
}
{
color = 6;
glyphname = P;
kernLeft = KO_H;
kernRight = KO_P;
layers = (
{
anchors = (
{
name = bottom;
pos = (315,0);
},
{
name = top;
pos = (315,700);
}
);
layerId = "A0F3C0B3-6058-4691-93DD-C4034CAB0732";
shapes = (
{
closed = 1;
nodes = (
(132,260,l),
(279,260,l),
(279,326,l),
(132,326,l)
);
},
{
closed = 1;
nodes = (
(279,260,l),
(471,260,o),
(584,320,o),
(584,481,cs),
(584,642,o),
(471,700,o),
(279,700,c),
(279,634,l),
(425,634,o),
(506,601,o),
(506,481,cs),
(506,361,o),
(425,326,o),
(279,326,c)
);
},
{
closed = 1;
nodes = (
(132,634,l),
(279,634,l),
(279,700,l),
(132,700,l)
);
},
{
closed = 1;
nodes = (
(57,634,l),
(57,0,l),
(132,0,l),
(132,634,l)
);
}
);
width = 623;
},
{
anchors = (
{
name = bottom;
pos = (320,0);
},
{
name = top;
pos = (320,700);
}
);
layerId = "7B07347B-11DE-4909-BA20-F43005BA30D7";
shapes = (
{
closed = 1;
nodes = (
(197,230,l),
(294,230,l),
(294,356,l),
(197,356,l)
);
},
{
closed = 1;
nodes = (
(294,230,l),
(476,230,o),
(599,294,o),
(599,465,cs),
(599,636,o),
(476,700,o),
(294,700,c),
(294,574,l),
(390,574,o),
(448,555,o),
(448,465,cs),
(448,375,o),
(390,356,o),
(294,356,c)
);
},
{
closed = 1;
nodes = (
(197,574,l),
(294,574,l),
(294,700,l),
(197,700,l)
);
},
{
closed = 1;
nodes = (
(52,634,l),
(52,0,l),
(197,0,l),
(197,634,l)
);
}
);
width = 633;
}
);
metricLeft = "=H";
unicode = 80;
userData = {
KernOnName = P;
};
}
{
color = 6;
glyphname = Q;
kernLeft = KO_O;
kernRight = KO_O;
layers = (
{
anchors = (
{
name = bottom;
pos = (379,0);
},
{
name = top;
pos = (379,700);
}
);
layerId = "A0F3C0B3-6058-4691-93DD-C4034CAB0732";
shapes = (
{
closed = 1;
nodes = (
(601,-16,o),
(724,148,o),
(724,351,cs),
(724,552,o),
(601,716,o),
(379,716,cs),
(156,716,o),
(33,552,o),
(33,351,cs),
(33,148,o),
(156,-16,o),
(379,-16,cs)
);
},
{
closed = 1;
nodes = (
(415,-134,l),
(415,32,l),
(342,32,l),
(342,-134,l)
);
},
{
closed = 1;
nodes = (
(574,-200,l),
(574,-134,l),
(415,-134,l),
(415,-200,l)
);
},
{
closed = 1;
nodes = (
(203,56,o),
(111,201,o),
(111,351,cs),
(111,499,o),
(203,644,o),
(379,644,cs),
(555,644,o),
(636,499,o),
(636,351,cs),
(636,201,o),
(555,56,o),
(379,56,cs)
);
}
);
width = 757;
},
{
anchors = (
{
name = bottom;
pos = (374,0);
},
{
name = top;
pos = (374,700);
}
);
layerId = "7B07347B-11DE-4909-BA20-F43005BA30D7";
shapes = (
{
closed = 1;
nodes = (
(596,-16,o),
(719,148,o),
(719,351,cs),
(719,552,o),
(596,716,o),
(374,716,cs),
(151,716,o),
(28,552,o),
(28,351,cs),
(28,148,o),
(151,-16,o),
(374,-16,cs)
);
},
{
closed = 1;
nodes = (
(445,-140,l),
(445,32,l),
(302,32,l),
(302,-140,l)
);
},
{
closed = 1;
nodes = (
(569,-200,l),
(569,-74,l),
(445,-74,l),
(445,-200,l)
);
},
{
closed = 1;
nodes = (
(237,116,o),
(179,231,o),
(179,351,cs),
(179,469,o),
(237,584,o),
(374,584,cs),
(510,584,o),
(568,469,o),
(568,351,cs),
(568,231,o),
(510,116,o),
(374,116,cs)
);
}
);
width = 747;
}
);
metricLeft = "=O";
metricRight = "=O";
unicode = 81;
}
{
color = 6;
glyphname = T;
kernLeft = KO_T;
kernRight = KO_T;
layers = (
{
anchors = (
{
name = bottom;
pos = (311,0);
},
{
name = center;
pos = (311,350);
},
{
name = top;
pos = (311,700);
}
);
layerId = "7B07347B-11DE-4909-BA20-F43005BA30D7";
shapes = (
{
closed = 1;
nodes = (
(238,0,l),
(383,0,l),
(383,700,l),
(238,700,l)
);
},
{
closed = 1;
nodes = (
(20,574,l),
(601,574,l),
(601,700,l),
(20,700,l)
);
}
);
width = 621;
},
{
anchors = (
{
name = bottom;
pos = (286,0);
},
{
name = center;
pos = (286,350);
},
{
name = top;
pos = (286,700);
}
);
layerId = "A0F3C0B3-6058-4691-93DD-C4034CAB0732";
shapes = (
{
closed = 1;
nodes = (
(248,0,l),
(323,0,l),
(323,700,l),
(248,700,l)
);
},
{
closed = 1;
nodes = (
(25,634,l),
(546,634,l),
(546,700,l),
(25,700,l)
);
}
);
width = 571;
}
);
unicode = 84;
userData = {
KernOnName = T;
};
}
{
color = 6;
glyphname = W;
kernLeft = KO_W;
kernRight = KO_W;
layers = (
{
anchors = (
{
name = bottom;
pos = (513,0);
},
{
name = top;
pos = (513,700);
}
);
layerId = "7B07347B-11DE-4909-BA20-F43005BA30D7";
shapes = (
{
closed = 1;
nodes = (
(334,0,l),
(163,700,l),
(20,700,l),
(201,0,l)
);
},
{
closed = 1;
nodes = (
(577,700,l),
(434,700,l),
(263,0,l),
(396,0,l)
);
},
{
closed = 1;
nodes = (
(763,0,l),
(592,700,l),
(449,700,l),
(630,0,l)
);
},
{
closed = 1;
nodes = (
(1006,700,l),
(863,700,l),
(692,0,l),
(825,0,l)
);
}
);
width = 1026;
},
{
anchors = (
{
name = bottom;
pos = (454,0);
},
{
name = top;
pos = (454,700);
}
);
layerId = "A0F3C0B3-6058-4691-93DD-C4034CAB0732";
shapes = (
{
closed = 1;
nodes = (
(274,0,l),
(103,700,l),
(25,700,l),
(206,0,l)
);
},
{
closed = 1;
nodes = (
(483,700,l),
(405,700,l),
(234,0,l),
(302,0,l)
);
},
{
closed = 1;
nodes = (
(673,0,l),
(502,700,l),
(424,700,l),
(605,0,l)
);
},
{
closed = 1;
nodes = (
(882,700,l),
(804,700,l),
(633,0,l),
(701,0,l)
);
}
);
width = 907;
}
);
metricRight = "=V";
unicode = 87;
userData = {
KernOnName = W;
};
}
{
color = 6;
glyphname = backslash;
kernLeft = KO_backslash;
kernRight = KO_backslash;
layers = (
{
layerId = "A0F3C0B3-6058-4691-93DD-C4034CAB0732";
shapes = (
{
closed = 1;
nodes = (
(25,700,l),
(225,0,l),
(302,0,l),
(102,700,l)
);
}
);
width = 327;
},
{
layerId = "7B07347B-11DE-4909-BA20-F43005BA30D7";
shapes = (
{
closed = 1;
nodes = (
(20,700,l),
(220,0,l),
(362,0,l),
(162,700,l)
);
}
);
width = 382;
}
);
unicode = 92;
}
{
color = 6;
glyphname = a;
kernLeft = KO_a;
kernRight = KO_a;
layers = (
{
anchors = (
{
name = bottom;
pos = (271,0);
},
{
name = ogonek;
pos = (497,0);
},
{
name = top;
pos = (271,560);
}
);
layerId = "A0F3C0B3-6058-4691-93DD-C4034CAB0732";
shapes = (
{
closed = 1;
nodes = (
(335,-16,o),
(389,14,o),
(424,70,c),
(424,0,l),
(497,0,l),
(497,285,l),
(424,285,l),
(424,221,ls),
(424,130,o),
(371,44,o),
(266,44,cs),
(171,44,o),
(125,86,o),
(125,163,cs),
(125,247,o),
(225,293,o),
(424,285,c),
(424,342,l),
(247,347,o),
(49,336,o),
(49,159,cs),
(49,47,o),
(137,-16,o),
(247,-16,cs)
);
},
{
closed = 1;
nodes = (
(119,353,l),
(119,439,o),
(169,508,o),
(275,508,cs),
(369,508,o),
(419,449,o),
(424,342,c),
(496,342,l),
(489,486,o),
(416,576,o),
(275,576,cs),
(122,576,o),
(40,467,o),
(40,353,c)
);
}
);
width = 546;
},
{
anchors = (
{
name = bottom;
pos = (286,0);
},
{
name = ogonek;
pos = (532,0);
},
{
name = top;
pos = (286,560);
}
);
layerId = "7B07347B-11DE-4909-BA20-F43005BA30D7";
shapes = (
{
closed = 1;
nodes = (
(301,-16,o),
(358,11,o),
(389,54,c),
(389,0,l),
(532,0,l),
(532,291,l),
(389,291,l),
(389,221,ls),
(389,130,o),
(323,114,o),
(271,114,cs),
(235,114,o),
(203,127,o),
(203,163,cs),
(203,212,o),
(257,233,o),
(389,231,c),
(389,353,l),
(242,349,o),
(54,332,o),
(54,159,cs),
(54,47,o),
(133,-16,o),
(243,-16,cs)
);
},
{
closed = 1;
nodes = (
(184,353,l),
(184,399,o),
(204,446,o),
(290,446,cs),
(365,446,o),
(385,408,o),
(389,353,c),
(531,353,l),
(519,491,o),
(437,576,o),
(290,576,cs),
(127,576,o),
(35,467,o),
(35,353,c)
);
}
);
width = 576;
}
);
metricRight = "=n";
unicode = 97;
userData = {
KernOnName = a;
};
}
{
color = 6;
glyphname = c;
kernLeft = KO_o;
kernRight = KO_c;
layers = (
{
anchors = (
{
name = bottom;
pos = (300,0);
},
{
name = top;
pos = (300,560);
}
);
layerId = "7B07347B-11DE-4909-BA20-F43005BA30D7";
shapes = (
{
closed = 1;
nodes = (
(425,235,l),
(425,171,o),
(391,114,o),
(311,114,cs),
(208,114,o),
(171,186,o),
(171,279,cs),
(171,373,o),
(208,446,o),
(311,446,cs),
(390,446,o),
(421,393,o),
(421,340,c),
(572,340,l),
(572,463,o),
(463,576,o),
(311,576,cs),
(138,576,o),
(25,453,o),
(25,279,cs),
(25,106,o),
(138,-16,o),
(311,-16,cs),
(469,-16,o),
(574,90,o),
(574,235,c)
);
}
);
width = 599;
},
{
anchors = (
{
name = bottom;
pos = (305,0);
},
{
name = top;
pos = (305,560);
}
);
layerId = "A0F3C0B3-6058-4691-93DD-C4034CAB0732";
shapes = (
{
closed = 1;
nodes = (
(505,235,l),
(495,141,o),
(446,52,o),
(316,52,cs),
(183,52,o),
(106,146,o),
(106,279,cs),
(106,413,o),
(183,508,o),
(316,508,cs),
(435,508,o),
(491,423,o),
(501,340,c),
(577,340,l),
(567,463,o),
(468,576,o),
(316,576,cs),
(143,576,o),
(30,453,o),
(30,279,cs),
(30,106,o),
(143,-16,o),
(316,-16,cs),
(474,-16,o),
(569,90,o),
(579,235,c)
);
}
);
width = 609;
}
);
metricLeft = "=o";
metricRight = "=o";
unicode = 99;
userData = {
KernOnName = c;
};
}
{
color = 6;
glyphname = h;
kernLeft = KO_l;
kernRight = KO_n;
layers = (
{
anchors = (
{
name = bottom;
pos = (296,0);
},
{
name = center;
pos = (150,600);
},
{
name = top;
pos = (296,730);
}
);
layerId = "7B07347B-11DE-4909-BA20-F43005BA30D7";
shapes = (
{
closed = 1;
nodes = (
(48,0,l),
(191,0,l),
(191,750,l),
(48,750,l)
);
},
{
closed = 1;
nodes = (
(191,407,o),
(268,452,o),
(328,452,cs),
(404,452,o),
(411,398,o),
(411,332,cs),
(411,0,l),
(554,0,l),
(554,345,ls),
(554,516,o),
(476,576,o),
(368,576,cs),
(205,576,o),
(175,459,o),
(175,389,c),
(191,274,l)
);
}
);
width = 598;
},
{
anchors = (
{
name = bottom;
pos = (276,0);
},
{
name = center;
pos = (142,600);
},
{
name = top;
pos = (276,720);
}
);
layerId = "A0F3C0B3-6058-4691-93DD-C4034CAB0732";
shapes = (
{
closed = 1;
nodes = (
(53,0,l),
(126,0,l),
(126,750,l),
(53,750,l)
);
},
{
closed = 1;
nodes = (
(126,417,o),
(203,512,o),
(303,512,cs),
(399,512,o),
(436,448,o),
(436,332,cs),
(436,0,l),
(509,0,l),
(509,345,ls),
(509,516,o),
(426,576,o),
(318,576,cs),
(162,576,o),
(110,459,o),
(110,389,c),
(126,284,l)
);
}
);
width = 558;
}
);
metricLeft = "=l";
metricRight = "=n";
unicode = 104;
userData = {
KernOnName = h;
};
}
{
color = 6;
glyphname = i;
kernLeft = KO_i;
kernRight = KO_i;
layers = (
{
anchors = (
{
name = bottom;
pos = (106,0);
}
);
layerId = "A0F3C0B3-6058-4691-93DD-C4034CAB0732";
shapes = (
{
closed = 1;
nodes = (
(78,0,l),
(151,0,l),
(151,560,l),
(78,560,l)
);
},
{
closed = 1;
nodes = (
(72,659,l),
(159,677,l),
(140,768,l),
(53,750,l)
);
}
);
width = 212;
},
{
anchors = (
{
name = bottom;
pos = (142,0);
}
);
layerId = "7B07347B-11DE-4909-BA20-F43005BA30D7";
shapes = (
{
closed = 1;
nodes = (
(88,0,l),
(231,0,l),
(231,560,l),
(88,560,l)
);
},
{
closed = 1;
nodes = (
(83,607,l),
(236,642,l),
(201,795,l),
(48,760,l)
);
}
);
width = 284;
}
);
metricLeft = "=l";
metricRight = "=l";
unicode = 105;
userData = {
KernOnName = i;
};
}
{
color = 6;
glyphname = j;
kernLeft = KO_j;
kernRight = KO_i;
layers = (
{
layerId = "A0F3C0B3-6058-4691-93DD-C4034CAB0732";
shapes = (
{
closed = 1;
nodes = (
(180,-200,l),
(180,560,l),
(107,560,l),
(107,-138,l),
(-47,-138,l),
(-47,-200,l)
);
},
{
closed = 1;
nodes = (
(188,677,l),
(169,768,l),
(82,750,l),
(101,659,l)
);
}
);
width = 241;
},
{
layerId = "7B07347B-11DE-4909-BA20-F43005BA30D7";
shapes = (
{
closed = 1;
nodes = (
(195,-200,l),
(195,560,l),
(52,560,l),
(52,-78,l),
(-72,-78,l),
(-72,-200,l)
);
},
{
closed = 1;
nodes = (
(200,642,l),
(165,795,l),
(12,760,l),
(47,607,l)
);
}
);
width = 248;
}
);
metricRight = "=i";
unicode = 106;
userData = {
KernOnName = j;
};
}
{
color = 6;
glyphname = m;
kernLeft = KO_n;
kernRight = KO_n;
layers = (
{
anchors = (
{
name = bottom;
pos = (450,0);
},
{
name = top;
pos = (450,560);
}
);
layerId = "7B07347B-11DE-4909-BA20-F43005BA30D7";
shapes = (
{
closed = 1;
nodes = (
(46,0,l),
(189,0,l),
(189,560,l),
(46,560,l)
);
},
{
closed = 1;
nodes = (
(189,407,o),
(261,452,o),
(311,452,cs),
(377,452,o),
(379,398,o),
(379,332,cs),
(379,0,l),
(522,0,l),
(522,345,ls),
(522,516,o),
(450,576,o),
(351,576,cs),
(208,576,o),
(173,459,o),
(173,389,c),
(189,274,l)
);
},
{
closed = 1;
nodes = (
(522,407,o),
(594,452,o),
(644,452,cs),
(710,452,o),
(712,398,o),
(712,332,cs),
(712,0,l),
(855,0,l),
(855,345,ls),
(855,516,o),
(783,576,o),
(684,576,cs),
(541,576,o),
(484,459,o),
(484,389,c),
(522,274,l)
);
}
);
width = 899;
},
{
anchors = (
{
name = bottom;
pos = (430,0);
},
{
name = top;
pos = (430,560);
}
);
layerId = "A0F3C0B3-6058-4691-93DD-C4034CAB0732";
shapes = (
{
closed = 1;
nodes = (
(51,0,l),
(124,0,l),
(124,560,l),
(51,560,l)
);
},
{
closed = 1;
nodes = (
(124,417,o),
(186,512,o),
(276,512,cs),
(372,512,o),
(394,448,o),
(394,332,cs),
(394,0,l),
(467,0,l),
(467,345,ls),
(467,516,o),
(399,576,o),
(291,576,cs),
(155,576,o),
(108,459,o),
(108,389,c),
(124,284,l)
);
},
{
closed = 1;
nodes = (
(467,417,o),
(529,512,o),
(619,512,cs),
(715,512,o),
(737,448,o),
(737,332,cs),
(737,0,l),
(810,0,l),
(810,345,ls),
(810,516,o),
(742,576,o),
(634,576,cs),
(498,576,o),
(451,459,o),
(451,389,c),
(467,284,l)
);
}
);
width = 859;
}
);
metricLeft = "=n";
metricRight = "=n";
unicode = 109;
}
{
color = 6;
glyphname = o;
kernLeft = KO_o;
kernRight = KO_o;
layers = (
{
anchors = (
{
name = bottom;
pos = (311,0);
},
{
name = center;
pos = (311,280);
},
{
name = ogonek;
pos = (560,10);
},
{
name = top;
pos = (311,560);
},
{
name = topright;
pos = (602,560);
}
);
layerId = "7B07347B-11DE-4909-BA20-F43005BA30D7";
shapes = (
{
closed = 1;
nodes = (
(484,-16,o),
(597,106,o),
(597,279,cs),
(597,453,o),
(484,576,o),
(311,576,cs),
(138,576,o),
(25,453,o),
(25,279,cs),
(25,106,o),
(138,-16,o),
(311,-16,cs)
);
},
{
closed = 1;
nodes = (
(214,112,o),
(171,186,o),
(171,279,cs),
(171,373,o),
(214,448,o),
(311,448,cs),
(408,448,o),
(451,373,o),
(451,279,cs),
(451,186,o),
(408,112,o),
(311,112,cs)
);
}
);
width = 622;
},
{
anchors = (
{
name = bottom;
pos = (316,0);
},
{
name = center;
pos = (316,280);
},
{
name = ogonek;
pos = (565,10);
},
{
name = top;
pos = (316,560);
},
{
name = topright;
pos = (607,560);
}
);
layerId = "A0F3C0B3-6058-4691-93DD-C4034CAB0732";
shapes = (
{
closed = 1;
nodes = (
(489,-16,o),
(602,106,o),
(602,279,cs),
(602,453,o),
(489,576,o),
(316,576,cs),
(143,576,o),
(30,453,o),
(30,279,cs),
(30,106,o),
(143,-16,o),
(316,-16,cs)
);
},
{
closed = 1;
nodes = (
(194,52,o),
(106,136,o),
(106,279,cs),
(106,423,o),
(194,508,o),
(316,508,cs),
(438,508,o),
(526,423,o),
(526,279,cs),
(526,136,o),
(438,52,o),
(316,52,cs)
);
}
);
width = 632;
}
);
unicode = 111;
userData = {
KernOnName = o;
};
}
{
color = 6;
glyphname = t;
kernLeft = KO_t;
kernRight = KO_t;
layers = (
{
anchors = (
{
name = bottom;
pos = (216,0);
},
{
name = center;
pos = (179,280);
},
{
name = top;
pos = (179,700);
},
{
name = topright;
pos = (248,750);
}
);
layerId = "A0F3C0B3-6058-4691-93DD-C4034CAB0732";
shapes = (
{
closed = 1;
nodes = (
(337,0,l),
(337,62,l),
(203,62,l),
(203,700,l),
(130,700,l),
(130,0,l)
);
},
{
closed = 1;
nodes = (
(321,498,l),
(321,560,l),
(26,560,l),
(26,498,l)
);
}
);
width = 367;
},
{
anchors = (
{
name = bottom;
pos = (184,0);
},
{
name = center;
pos = (184,280);
},
{
name = top;
pos = (184,700);
},
{
name = topright;
pos = (319,750);
}
);
layerId = "7B07347B-11DE-4909-BA20-F43005BA30D7";
shapes = (
{
closed = 1;
nodes = (
(352,0,l),
(352,122,l),
(228,122,l),
(228,700,l),
(85,700,l),
(85,0,l)
);
},
{
closed = 1;
nodes = (
(336,438,l),
(336,560,l),
(21,560,l),
(21,438,l)
);
}
);
width = 382;
},
{
anchors = (
{
name = bottom;
pos = (216,0);
},
{
name = center;
pos = (179,280);
},
{
name = top;
pos = (179,700);
},
{
name = topright;
pos = (248,750);
}
);
associatedMasterId = "A0F3C0B3-6058-4691-93DD-C4034CAB0732";
layerId = "3D14A174-FFCB-4459-B35C-F036CFD836AE";
name = "1 Sep 25 at 14:30";
shapes = (
{
closed = 1;
nodes = (
(337,0,l),
(337,62,l),
(203,62,l),
(203,700,l),
(130,700,l),
(130,0,l)
);
},
{
closed = 1;
nodes = (
(321,498,l),
(321,560,l),
(25,560,l),
(26,498,l)
);
}
);
width = 367;
}
);
unicode = 116;
userData = {
KernOnName = t;
};
}
{
color = 6;
glyphname = x;
kernLeft = KO_x;
kernRight = KO_x;
layers = (
{
anchors = (
{
name = bottom;
pos = (284,0);
},
{
name = top;
pos = (284,560);
}
);
layerId = "7B07347B-11DE-4909-BA20-F43005BA30D7";
shapes = (
{
closed = 1;
nodes = (
(380,0,l),
(547,0,l),
(190,560,l),
(23,560,l)
);
},
{
closed = 1;
nodes = (
(377,560,l),
(20,0,l),
(187,0,l),
(544,560,l)
);
}
);
width = 567;
},
{
anchors = (
{
name = bottom;
pos = (247,0);
},
{
name = top;
pos = (247,560);
}
);
layerId = "A0F3C0B3-6058-4691-93DD-C4034CAB0732";
shapes = (
{
closed = 1;
nodes = (
(385,0,l),
(468,0,l),
(111,560,l),
(28,560,l)
);
},
{
closed = 1;
nodes = (
(382,560,l),
(25,0,l),
(108,0,l),
(465,560,l)
);
}
);
width = 493;
}
);
unicode = 120;
userData = {
KernOnName = x;
};
}
{
color = 6;
glyphname = z;
kernLeft = KO_z;
kernRight = KO_z;
layers = (
{
anchors = (
{
name = bottom;
pos = (247,0);
},
{
name = center;
pos = (247,280);
},
{
name = top;
pos = (247,560);
}
);
layerId = "7B07347B-11DE-4909-BA20-F43005BA30D7";
shapes = (
{
closed = 1;
nodes = (
(32,438,l),
(404,438,l),
(467,464,l),
(467,560,l),
(32,560,l)
);
},
{
closed = 1;
nodes = (
(467,464,l),
(467,560,l),
(373,560,l),
(24,96,l),
(118,0,l)
);
},
{
closed = 1;
nodes = (
(470,122,l),
(86,122,l),
(24,96,l),
(24,0,l),
(470,0,l)
);
}
);
width = 494;
},
{
anchors = (
{
name = bottom;
pos = (247,0);
},
{
name = center;
pos = (247,280);
},
{
name = top;
pos = (247,560);
}
);
layerId = "A0F3C0B3-6058-4691-93DD-C4034CAB0732";
shapes = (
{
closed = 1;
nodes = (
(37,498,l),
(399,498,l),
(462,514,l),
(462,560,l),
(37,560,l)
);
},
{
closed = 1;
nodes = (
(462,514,l),
(462,560,l),
(418,560,l),
(29,46,l),
(73,0,l)
);
},
{
closed = 1;
nodes = (
(465,62,l),
(91,62,l),
(29,46,l),
(29,0,l),
(465,0,l)
);
}
);
width = 494;
}
);
unicode = 122;
userData = {
KernOnName = z;
};
}
{
color = 6;
glyphname = asciitilde;
kernLeft = KO_asciitilde;
kernRight = KO_asciitilde;
layers = (
{
layerId = "A0F3C0B3-6058-4691-93DD-C4034CAB0732";
shapes = (
{
attr = {
fillColor = (217,255);
};
closed = 1;
nodes = (
(232,337,o),
(285,253,o),
(376,253,cs),
(433,253,o),
(499,281,o),
(499,397,c),
(430,397,l),
(430,351,o),
(418,320,o),
(370,320,cs),
(313,320,o),
(259,401,o),
(167,401,cs),
(106,401,o),
(45,374,o),
(45,259,c),
(114,259,l),
(114,312,o),
(134,337,o),
(175,337,cs)
);
}
);
width = 544;
},
{
layerId = "7B07347B-11DE-4909-BA20-F43005BA30D7";
shapes = (
{
attr = {
fillColor = (217,255);
};
closed = 1;
nodes = (
(262,316,o),
(307,248,o),
(398,248,cs),
(456,248,o),
(544,293,o),
(544,434,c),
(417,434,l),
(417,404,o),
(399,381,o),
(376,381,cs),
(324,381,o),
(279,446,o),
(187,446,cs),
(126,446,o),
(40,403,o),
(40,262,c),
(167,262,l),
(167,291,o),
(187,316,o),
(211,316,cs)
);
}
);
width = 584;
}
);
metricRight = "=hyphen";
unicode = 126;
}
{
color = 6;
glyphname = copyright;
kernLeft = KO_at;
layers = (
{
layerId = "A0F3C0B3-6058-4691-93DD-C4034CAB0732";
shapes = (
{
closed = 1;
nodes = (
(609,-16,o),
(765,142,o),
(765,350,cs),
(765,558,o),
(609,716,o),
(399,716,cs),
(189,716,o),
(33,558,o),
(33,350,cs),
(33,142,o),
(189,-16,o),
(399,-16,cs)
);
},
{
closed = 1;
nodes = (
(234,50,o),
(105,180,o),
(105,350,cs),
(105,520,o),
(234,650,o),
(399,650,cs),
(564,650,o),
(693,520,o),
(693,350,cs),
(693,180,o),
(564,50,o),
(399,50,cs)
);
},
{
closed = 1;
nodes = (
(520,317,l),
(513,254,o),
(487,201,o),
(400,201,cs),
(311,201,o),
(264,256,o),
(264,349,cs),
(264,443,o),
(311,499,o),
(400,499,cs),
(478,499,o),
(510,450,o),
(517,395,c),
(594,395,l),
(587,486,o),
(513,570,o),
(400,570,cs),
(272,570,o),
(188,479,o),
(188,349,cs),
(188,221,o),
(272,130,o),
(400,130,cs),
(517,130,o),
(588,209,o),
(595,317,c)
);
}
);
width = 798;
},
{
layerId = "7B07347B-11DE-4909-BA20-F43005BA30D7";
shapes = (
{
closed = 1;
nodes = (
(596,-16,o),
(760,148,o),
(760,350,cs),
(760,552,o),
(596,716,o),
(394,716,cs),
(192,716,o),
(28,552,o),
(28,350,cs),
(28,148,o),
(192,-16,o),
(394,-16,cs)
);
},
{
closed = 1;
nodes = (
(254,93,o),
(142,207,o),
(142,350,cs),
(142,493,o),
(254,607,o),
(394,607,cs),
(534,607,o),
(646,493,o),
(646,350,cs),
(646,207,o),
(534,93,o),
(394,93,cs)
);
},
{
closed = 1;
nodes = (
(432,324,l),
(432,290,o),
(417,272,o),
(395,272,cs),
(363,272,o),
(342,294,o),
(342,349,cs),
(342,405,o),
(363,428,o),
(395,428,cs),
(416,428,o),
(430,412,o),
(430,385,c),
(553,385,l),
(553,458,o),
(489,525,o),
(395,525,cs),
(287,525,o),
(220,452,o),
(220,349,cs),
(220,248,o),
(287,175,o),
(395,175,cs),
(492,175,o),
(555,238,o),
(555,324,c)
);
}
);
width = 788;
},
{
associatedMasterId = "A0F3C0B3-6058-4691-93DD-C4034CAB0732";
layerId = "1E0F0B9D-C4B2-4287-BD96-4C6C31B70736";
name = "3 Sep 25 at 14:26";
shapes = (
{
closed = 1;
nodes = (
(601,-16,o),
(765,148,o),
(765,350,cs),
(765,552,o),
(601,716,o),
(399,716,cs),
(197,716,o),
(33,552,o),
(33,350,cs),
(33,148,o),
(197,-16,o),
(399,-16,cs)
);
},
{
closed = 1;
nodes = (
(237,56,o),
(105,188,o),
(105,350,cs),
(105,512,o),
(237,644,o),
(399,644,cs),
(561,644,o),
(693,512,o),
(693,350,cs),
(693,188,o),
(561,56,o),
(399,56,cs)
);
},
{
closed = 1;
nodes = (
(520,317,l),
(513,254,o),
(487,201,o),
(400,201,cs),
(311,201,o),
(264,256,o),
(264,349,cs),
(264,443,o),
(311,499,o),
(400,499,cs),
(478,499,o),
(510,450,o),
(517,395,c),
(594,395,l),
(587,486,o),
(513,570,o),
(400,570,cs),
(272,570,o),
(188,479,o),
(188,349,cs),
(188,221,o),
(272,130,o),
(400,130,cs),
(517,130,o),
(588,209,o),
(595,317,c)
);
}
);
width = 798;
}
);
metricRight = "=O";
unicode = 169;
}
{
color = 6;
glyphname = registered;
kernLeft = KO_at;
layers = (
{
layerId = "A0F3C0B3-6058-4691-93DD-C4034CAB0732";
shapes = (
{
closed = 1;
nodes = (
(609,-16,o),
(765,142,o),
(765,350,cs),
(765,558,o),
(609,716,o),
(399,716,cs),
(189,716,o),
(33,558,o),
(33,350,cs),
(33,142,o),
(189,-16,o),
(399,-16,cs)
);
},
{
closed = 1;
nodes = (
(234,50,o),
(105,180,o),
(105,350,cs),
(105,520,o),
(234,650,o),
(399,650,cs),
(564,650,o),
(693,520,o),
(693,350,cs),
(693,180,o),
(564,50,o),
(399,50,cs)
);
},
{
closed = 1;
nodes = (
(325,145,l),
(325,289,l),
(415,289,l),
(479,145,l),
(565,145,l),
(469,344,l),
(455,295,l),
(533,308,o),
(574,350,o),
(574,425,cs),
(574,516,o),
(509,561,o),
(388,561,cs),
(250,561,l),
(250,145,l)
);
},
{
closed = 1;
nodes = (
(325,493,l),
(388,493,ls),
(454,493,o),
(494,478,o),
(494,428,cs),
(494,368,o),
(454,357,o),
(388,357,cs),
(325,357,l)
);
}
);
width = 798;
},
{
background = {
shapes = (
{
closed = 1;
nodes = (
(581,-16,o),
(745,148,o),
(745,350,cs),
(745,552,o),
(581,716,o),
(379,716,cs),
(177,716,o),
(13,552,o),
(13,350,cs),
(13,148,o),
(177,-16,o),
(379,-16,cs)
);
},
{
closed = 1;
nodes = (
(250,116,o),
(145,221,o),
(145,350,cs),
(145,479,o),
(250,584,o),
(379,584,cs),
(508,584,o),
(613,479,o),
(613,350,cs),
(613,221,o),
(508,116,o),
(379,116,cs)
);
}
);
};
layerId = "7B07347B-11DE-4909-BA20-F43005BA30D7";
shapes = (
{
closed = 1;
nodes = (
(596,-16,o),
(760,148,o),
(760,350,cs),
(760,552,o),
(596,716,o),
(394,716,cs),
(192,716,o),
(28,552,o),
(28,350,cs),
(28,148,o),
(192,-16,o),
(394,-16,cs)
);
},
{
closed = 1;
nodes = (
(254,93,o),
(142,207,o),
(142,350,cs),
(142,493,o),
(254,607,o),
(394,607,cs),
(534,607,o),
(646,493,o),
(646,350,cs),
(646,207,o),
(534,93,o),
(394,93,cs)
);
},
{
closed = 1;
nodes = (
(361,186,l),
(361,302,l),
(383,302,l),
(435,186,l),
(544,186,l),
(464,354,l),
(427,307,l),
(495,316,o),
(540,350,o),
(540,413,cs),
(540,486,o),
(488,520,o),
(393,520,cs),
(261,520,l),
(261,186,l)
);
},
{
closed = 1;
nodes = (
(361,436,l),
(396,436,ls),
(419,436,o),
(437,433,o),
(437,411,cs),
(437,385,o),
(419,386,o),
(396,386,cs),
(361,386,l)
);
}
);
width = 788;
}
);
metricRight = "=O";
unicode = 174;
}
{
color = 6;
glyphname = plusminus;
kernRight = KO_plusminus;
layers = (
{
layerId = "A0F3C0B3-6058-4691-93DD-C4034CAB0732";
shapes = (
{
closed = 1;
nodes = (
(46,167,l),
(46,101,l),
(605,101,l),
(605,167,l)
);
},
{
closed = 1;
nodes = (
(46,391,l),
(605,391,l),
(605,455,l),
(46,455,l)
);
},
{
closed = 1;
nodes = (
(292,615,l),
(292,230,l),
(358,230,l),
(358,615,l)
);
}
);
width = 651;
},
{
layerId = "7B07347B-11DE-4909-BA20-F43005BA30D7";
shapes = (
{
closed = 1;
nodes = (
(41,194,l),
(41,72,l),
(600,72,l),
(600,194,l)
);
},
{
closed = 1;
nodes = (
(41,362,l),
(600,362,l),
(600,484,l),
(41,484,l)
);
},
{
closed = 1;
nodes = (
(259,615,l),
(259,230,l),
(381,230,l),
(381,615,l)
);
}
);
width = 641;
},
{
associatedMasterId = "7B07347B-11DE-4909-BA20-F43005BA30D7";
layerId = "474FF4BF-B66E-4D9A-8A17-93B75C9A930A";
name = "1 Sep 25 at 14:40";
shapes = (
{
closed = 1;
nodes = (
(41,194,l),
(41,72,l),
(600,72,l),
(601,194,l)
);
},
{
closed = 1;
nodes = (
(41,362,l),
(600,362,l),
(600,484,l),
(40,484,l)
);
},
{
closed = 1;
nodes = (
(259,615,l),
(259,230,l),
(381,230,l),
(381,616,l)
);
}
);
width = 641;
}
);
unicode = 177;
}
{
color = 6;
glyphname = Oslash;
kernRight = KO_O;
layers = (
{
layerId = "A0F3C0B3-6058-4691-93DD-C4034CAB0732";
shapes = (
{
closed = 1;
nodes = (
(601,-16,o),
(724,148,o),
(724,351,cs),
(724,552,o),
(601,716,o),
(379,716,cs),
(156,716,o),
(33,552,o),
(33,351,cs),
(33,148,o),
(156,-16,o),
(379,-16,cs)
);
},
{
closed = 1;
nodes = (
(643,673,l),
(582,716,l),
(95,27,l),
(156,-16,l)
);
},
{
closed = 1;
nodes = (
(203,56,o),
(111,201,o),
(111,351,cs),
(111,499,o),
(203,644,o),
(379,644,cs),
(555,644,o),
(636,499,o),
(636,351,cs),
(636,201,o),
(555,56,o),
(379,56,cs)
);
}
);
width = 757;
},
{
layerId = "7B07347B-11DE-4909-BA20-F43005BA30D7";
shapes = (
{
closed = 1;
nodes = (
(596,-16,o),
(719,148,o),
(719,351,cs),
(719,552,o),
(596,716,o),
(374,716,cs),
(151,716,o),
(28,552,o),
(28,351,cs),
(28,148,o),
(151,-16,o),
(374,-16,cs)
);
},
{
closed = 1;
nodes = (
(719,637,l),
(613,731,l),
(28,77,l),
(134,-17,l)
);
},
{
closed = 1;
nodes = (
(237,116,o),
(179,231,o),
(179,351,cs),
(179,469,o),
(237,584,o),
(374,584,cs),
(510,584,o),
(568,469,o),
(568,351,cs),
(568,231,o),
(510,116,o),
(374,116,cs)
);
}
);
width = 747;
},
{
associatedMasterId = "7B07347B-11DE-4909-BA20-F43005BA30D7";
layerId = "680758D2-B50E-40A3-B61E-F7DE1F5D2214";
name = "1 Sep 25 at 15:18";
shapes = (
{
closed = 1;
nodes = (
(596,-16,o),
(719,148,o),
(719,351,cs),
(719,552,o),
(596,716,o),
(374,716,cs),
(151,716,o),
(28,552,o),
(28,351,cs),
(28,148,o),
(151,-16,o),
(374,-16,cs)
);
},
{
closed = 1;
nodes = (
(646,657,l),
(561,717,l),
(85,43,l),
(170,-17,l)
);
},
{
closed = 1;
nodes = (
(237,116,o),
(179,231,o),
(179,351,cs),
(179,469,o),
(237,584,o),
(374,584,cs),
(510,584,o),
(568,469,o),
(568,351,cs),
(568,231,o),
(510,116,o),
(374,116,cs)
);
}
);
width = 747;
}
);
metricRight = "=O";
unicode = 216;
}
{
color = 6;
glyphname = ae;
kernLeft = KO_a;
kernRight = KO_e;
layers = (
{
layerId = "A0F3C0B3-6058-4691-93DD-C4034CAB0732";
shapes = (
{
closed = 1;
nodes = (
(846,-16,o),
(935,62,o),
(964,177,c),
(887,177,l),
(865,107,o),
(812,52,o),
(710,52,cs),
(577,52,o),
(500,146,o),
(500,279,cs),
(500,413,o),
(577,508,o),
(710,508,cs),
(827,508,o),
(898,417,o),
(899,285,c),
(942,321,l),
(466,321,l),
(466,255,l),
(966,255,l),
(980,458,o),
(862,576,o),
(710,576,cs),
(537,576,o),
(424,453,o),
(424,279,cs),
(424,106,o),
(537,-16,o),
(710,-16,cs)
);
},
{
closed = 1;
nodes = (
(380,-16,o),
(448,42,o),
(478,154,c),
(424,221,l),
(424,130,o),
(371,44,o),
(266,44,cs),
(171,44,o),
(125,86,o),
(125,163,cs),
(125,251,o),
(236,306,o),
(449,281,c),
(428,342,l),
(249,359,o),
(49,338,o),
(49,159,cs),
(49,47,o),
(137,-16,o),
(247,-16,cs)
);
},
{
closed = 1;
nodes = (
(497,320,l),
(497,477,o),
(423,576,o),
(275,576,c),
(122,576,o),
(40,467,o),
(40,353,c),
(119,353,l),
(119,439,o),
(169,508,o),
(275,508,cs),
(375,508,o),
(424,441,o),
(424,320,c)
);
},
{
closed = 1;
nodes = (
(497,195,l),
(497,320,l),
(424,320,l),
(424,195,l)
);
}
);
width = 997;
},
{
layerId = "7B07347B-11DE-4909-BA20-F43005BA30D7";
shapes = (
{
closed = 1;
nodes = (
(810,-16,o),
(907,63,o),
(931,178,c),
(780,178,l),
(765,140,o),
(728,112,o),
(674,112,cs),
(571,112,o),
(534,186,o),
(534,279,cs),
(534,373,o),
(571,448,o),
(674,448,cs),
(762,448,o),
(795,379,o),
(786,321,c),
(832,348,l),
(469,348,l),
(469,232,l),
(929,232,l),
(960,451,o),
(826,576,o),
(674,576,cs),
(501,576,o),
(388,443,o),
(388,279,cs),
(388,106,o),
(501,-16,o),
(674,-16,cs)
);
},
{
closed = 1;
nodes = (
(360,-16,o),
(448,41,o),
(480,141,c),
(389,221,l),
(389,130,o),
(323,114,o),
(271,114,cs),
(235,114,o),
(203,127,o),
(203,163,cs),
(203,216,o),
(267,238,o),
(424,231,c),
(403,352,l),
(254,349,o),
(54,338,o),
(54,159,cs),
(54,47,o),
(133,-16,o),
(243,-16,cs)
);
},
{
closed = 1;
nodes = (
(532,320,l),
(532,467,o),
(448,576,o),
(290,576,c),
(127,576,o),
(35,467,o),
(35,353,c),
(184,353,l),
(184,399,o),
(204,446,o),
(290,446,cs),
(380,446,o),
(389,391,o),
(389,320,c)
);
},
{
closed = 1;
nodes = (
(532,208,l),
(532,320,l),
(389,320,l),
(389,208,l)
);
}
);
width = 958;
}
);
metricRight = "=e";
unicode = 230;
}
{
color = 6;
glyphname = eth;
kernLeft = KO_o;
kernRight = KO_eth;
layers = (
{
layerId = "A0F3C0B3-6058-4691-93DD-C4034CAB0732";
shapes = (
{
closed = 1;
nodes = (
(442,-16,o),
(555,98,o),
(555,284,cs),
(555,534,o),
(453,750,o),
(180,750,c),
(180,685,l),
(366,685,o),
(457,573,o),
(479,406,c),
(492,401,l),
(450,498,o),
(368,546,o),
(282,546,cs),
(133,546,o),
(30,428,o),
(30,264,cs),
(30,101,o),
(133,-16,o),
(282,-16,cs)
);
},
{
closed = 1;
nodes = (
(180,52,o),
(106,131,o),
(106,264,cs),
(106,398,o),
(180,478,o),
(287,478,cs),
(416,478,o),
(482,388,o),
(482,264,cs),
(482,141,o),
(416,52,o),
(287,52,cs)
);
},
{
closed = 1;
nodes = (
(307,571,l),
(465,729,l),
(425,768,l),
(267,610,l)
);
}
);
width = 608;
},
{
background = {
shapes = (
{
closed = 1;
nodes = (
(276,556,l),
(395,739,l),
(348,769,l),
(229,586,l)
);
}
);
};
layerId = "7B07347B-11DE-4909-BA20-F43005BA30D7";
shapes = (
{
closed = 1;
nodes = (
(437,-16,o),
(550,98,o),
(550,284,cs),
(550,534,o),
(448,750,o),
(175,750,c),
(175,625,l),
(311,625,o),
(387,563,o),
(409,406,c),
(487,401,l),
(445,498,o),
(363,536,o),
(277,536,cs),
(128,536,o),
(25,418,o),
(25,264,cs),
(25,101,o),
(128,-16,o),
(277,-16,cs)
);
},
{
closed = 1;
nodes = (
(233,112,o),
(171,151,o),
(171,264,cs),
(171,368,o),
(233,408,o),
(292,408,cs),
(351,408,o),
(407,358,o),
(407,264,cs),
(407,151,o),
(351,112,o),
(292,112,cs)
);
},
{
closed = 1;
nodes = (
(281,542,l),
(418,719,l),
(334,777,l),
(197,600,l)
);
}
);
width = 598;
},
{
associatedMasterId = "7B07347B-11DE-4909-BA20-F43005BA30D7";
layerId = "75EE1BA6-957B-40D4-A1D6-9B3B54468F4F";
name = "1 Sep 25 at 15:42";
shapes = (
{
closed = 1;
nodes = (
(437,-16,o),
(550,98,o),
(550,284,cs),
(550,534,o),
(448,750,o),
(175,750,c),
(175,625,l),
(311,625,o),
(387,563,o),
(409,406,c),
(487,401,l),
(445,498,o),
(363,546,o),
(277,546,cs),
(128,546,o),
(25,428,o),
(25,264,cs),
(25,101,o),
(128,-16,o),
(277,-16,cs)
);
},
{
closed = 1;
nodes = (
(233,112,o),
(171,151,o),
(171,264,cs),
(171,378,o),
(233,418,o),
(292,418,cs),
(351,418,o),
(407,368,o),
(407,264,cs),
(407,151,o),
(351,112,o),
(292,112,cs)
);
},
{
closed = 1;
nodes = (
(291,556,l),
(410,739,l),
(363,769,l),
(244,586,l)
);
}
);
width = 598;
}
);
metricRight = "=d";
unicode = 240;
}
{
color = 6;
glyphname = thorn;
kernLeft = KO_l;
kernRight = KO_p;
layers = (
{
layerId = "A0F3C0B3-6058-4691-93DD-C4034CAB0732";
shapes = (
{
closed = 1;
nodes = (
(475,-16,o),
(578,106,o),
(578,279,cs),
(578,453,o),
(475,576,o),
(326,576,cs),
(229,576,o),
(162,527,o),
(126,450,c),
(126,108,l),
(160,34,o),
(226,-16,o),
(326,-16,cs)
);
},
{
closed = 1;
nodes = (
(126,-200,l),
(126,750,l),
(53,750,l),
(53,-200,l)
);
},
{
closed = 1;
nodes = (
(192,52,o),
(126,146,o),
(126,279,cs),
(126,413,o),
(192,508,o),
(321,508,cs),
(428,508,o),
(502,423,o),
(502,279,cs),
(502,136,o),
(428,52,o),
(321,52,cs)
);
}
);
width = 608;
},
{
layerId = "7B07347B-11DE-4909-BA20-F43005BA30D7";
shapes = (
{
closed = 1;
nodes = (
(510,-16,o),
(603,106,o),
(603,279,cs),
(603,453,o),
(510,576,o),
(351,576,cs),
(276,576,o),
(225,548,o),
(191,497,c),
(191,61,l),
(223,13,o),
(273,-16,o),
(351,-16,cs)
);
},
{
closed = 1;
nodes = (
(191,-200,l),
(191,750,l),
(48,750,l),
(48,-200,l)
);
},
{
closed = 1;
nodes = (
(234,112,o),
(191,186,o),
(191,279,cs),
(191,373,o),
(234,448,o),
(326,448,cs),
(413,448,o),
(457,373,o),
(457,279,cs),
(457,186,o),
(413,112,o),
(326,112,cs)
);
}
);
width = 628;
}
);
metricRight = "=p";
unicode = 254;
}
{
color = 6;
glyphname = Lslash;
kernLeft = KO_Lslash;
kernRight = KO_Lslash;
layers = (
{
layerId = "A0F3C0B3-6058-4691-93DD-C4034CAB0732";
shapes = (
{
closed = 1;
nodes = (
(146,0,l),
(221,0,l),
(221,700,l),
(146,700,l)
);
},
{
closed = 1;
nodes = (
(174,0,l),
(557,0,l),
(557,66,l),
(174,66,l)
);
},
{
closed = 1;
nodes = (
(52,297,l),
(358,397,l),
(358,465,l),
(52,365,l)
);
}
);
width = 582;
},
{
layerId = "7B07347B-11DE-4909-BA20-F43005BA30D7";
shapes = (
{
closed = 1;
nodes = (
(129,0,l),
(274,0,l),
(274,700,l),
(129,700,l)
);
},
{
closed = 1;
nodes = (
(274,0,l),
(560,0,l),
(560,126,l),
(274,126,l)
);
},
{
closed = 1;
nodes = (
(47,275,l),
(383,395,l),
(383,515,l),
(47,395,l)
);
}
);
width = 580;
}
);
metricRight = "=L";
unicode = 321;
}
{
color = 6;
glyphname = OE;
kernLeft = KO_O;
kernRight = KO_E;
layers = (
{
layerId = "A0F3C0B3-6058-4691-93DD-C4034CAB0732";
shapes = (
{
closed = 1;
nodes = (
(601,-16,o),
(684,148,o),
(684,351,cs),
(684,552,o),
(601,716,o),
(379,716,cs),
(156,716,o),
(33,552,o),
(33,351,cs),
(33,148,o),
(156,-16,o),
(379,-16,cs)
);
},
{
closed = 1;
nodes = (
(203,56,o),
(111,201,o),
(111,351,cs),
(111,499,o),
(203,644,o),
(379,644,cs),
(555,644,o),
(636,499,o),
(636,351,cs),
(636,201,o),
(555,56,o),
(379,56,cs)
);
},
{
closed = 1;
nodes = (
(1097,0,l),
(1097,68,l),
(683,68,l),
(683,0,l)
);
},
{
closed = 1;
nodes = (
(711,0,l),
(711,700,l),
(636,700,l),
(636,0,l)
);
},
{
closed = 1;
nodes = (
(1053,318,l),
(1053,386,l),
(660,386,l),
(660,318,l)
);
},
{
closed = 1;
nodes = (
(1093,632,l),
(1093,700,l),
(691,700,l),
(691,632,l)
);
}
);
width = 1144;
},
{
layerId = "7B07347B-11DE-4909-BA20-F43005BA30D7";
shapes = (
{
closed = 1;
nodes = (
(596,-16,o),
(639,148,o),
(639,351,cs),
(639,552,o),
(596,716,o),
(374,716,cs),
(151,716,o),
(28,552,o),
(28,351,cs),
(28,148,o),
(151,-16,o),
(374,-16,cs)
);
},
{
closed = 1;
nodes = (
(237,116,o),
(179,231,o),
(179,351,cs),
(179,469,o),
(237,584,o),
(374,584,cs),
(510,584,o),
(568,469,o),
(568,351,cs),
(568,231,o),
(510,116,o),
(374,116,cs)
);
},
{
closed = 1;
nodes = (
(1040,0,l),
(1040,126,l),
(714,126,l),
(714,0,l)
);
},
{
closed = 1;
nodes = (
(714,0,l),
(714,700,l),
(569,700,l),
(569,0,l)
);
},
{
closed = 1;
nodes = (
(996,289,l),
(996,415,l),
(714,415,l),
(714,289,l)
);
},
{
closed = 1;
nodes = (
(1036,574,l),
(1036,700,l),
(624,700,l),
(624,574,l)
);
}
);
width = 1082;
}
);
metricRight = "=E";
unicode = 338;
}
{
color = 6;
glyphname = jdotless;
kernLeft = KO_j;
layers = (
{
anchors = (
{
name = bottom;
pos = (144,-200);
},
{
name = top;
pos = (148,560);
}
);
layerId = "A0F3C0B3-6058-4691-93DD-C4034CAB0732";
shapes = (
{
closed = 1;
nodes = (
(112,560,l),
(112,-68,l),
(112,-122,o),
(93,-138,o),
(53,-138,c),
(-47,-138,l),
(-47,-200,l),
(54,-200,l),
(145,-200,o),
(185,-158,o),
(185,-68,c),
(185,560,l)
);
}
);
width = 248;
},
{
anchors = (
{
name = bottom;
pos = (119,-200);
},
{
name = top;
pos = (121,560);
}
);
layerId = "7B07347B-11DE-4909-BA20-F43005BA30D7";
shapes = (
{
closed = 1;
nodes = (
(52,560,l),
(52,-28,l),
(52,-61,o),
(34,-78,o),
(-2,-78,c),
(-72,-78,l),
(-72,-200,l),
(-1,-200,l),
(130,-200,o),
(195,-143,o),
(195,-28,c),
(195,560,l)
);
}
);
width = 253;
}
);
metricRight = "=i+10";
unicode = 567;
}
{
color = 6;
glyphname = tildecomb;
layers = (
{
anchors = (
{
name = _top;
pos = (159,560);
},
{
name = top;
pos = (159,756);
}
);
layerId = "A0F3C0B3-6058-4691-93DD-C4034CAB0732";
shapes = (
{
attr = {
fillColor = (208,255);
};
closed = 1;
nodes = (
(140,683,o),
(171,632,o),
(220,632,cs),
(257,632,o),
(300,659,o),
(300,731,c),
(245,731,l),
(245,708,o),
(237,691,o),
(216,691,cs),
(181,691,o),
(160,740,o),
(103,740,cs),
(65,740,o),
(20,715,o),
(20,643,c),
(76,643,l),
(76,666,o),
(86,683,o),
(106,683,cs)
);
}
);
width = 317;
},
{
anchors = (
{
name = _top;
pos = (202,560);
},
{
name = top;
pos = (202,759);
}
);
layerId = "7B07347B-11DE-4909-BA20-F43005BA30D7";
shapes = (
{
attr = {
fillColor = (217,255);
};
closed = 1;
nodes = (
(188,669,o),
(215,625,o),
(278,625,cs),
(320,625,o),
(383,659,o),
(383,766,c),
(278,766,l),
(278,743,o),
(271,733,o),
(254,733,cs),
(217,733,o),
(189,775,o),
(125,775,cs),
(82,775,o),
(20,742,o),
(20,636,c),
(124,636,l),
(124,658,o),
(133,669,o),
(151,669,cs)
);
}
);
width = 403;
}
);
unicode = 771;
}
{
color = 6;
glyphname = ogonekcomb;
layers = (
{
anchors = (
{
name = _ogonek;
pos = (194,0);
}
);
layerId = "A0F3C0B3-6058-4691-93DD-C4034CAB0732";
shapes = (
{
closed = 1;
nodes = (
(148,35,l),
(78,-6,o),
(32,-40,o),
(32,-104,cs),
(32,-160,o),
(84,-200,o),
(169,-200,c),
(199,-200,l),
(199,-136,l),
(171,-136,l),
(142,-136,o),
(95,-129,o),
(95,-84,cs),
(95,-35,o),
(156,-13,o),
(194,0,c)
);
}
);
width = 234;
},
{
anchors = (
{
name = _ogonek;
pos = (203,0);
}
);
layerId = "7B07347B-11DE-4909-BA20-F43005BA30D7";
shapes = (
{
closed = 1;
nodes = (
(157,35,l),
(75,3,o),
(30,-35,o),
(30,-96,cs),
(30,-161,o),
(93,-200,o),
(178,-200,cs),
(228,-200,l),
(228,-72,l),
(183,-72,ls),
(151,-72,o),
(140,-61,o),
(140,-45,cs),
(140,-24,o),
(160,-9,o),
(203,0,c)
);
}
);
width = 258;
}
);
unicode = 808;
}
{
color = 6;
glyphname = Germandbls;
kernLeft = KO_H;
kernRight = KO_B;
layers = (
{
background = {
shapes = (
{
closed = 1;
nodes = (
(304,0,ls),
(456,0,o),
(579,40,o),
(579,191,cs),
(579,303,o),
(487,386,o),
(336,386,c),
(514,634,l),
(449,670,l),
(251,386,l),
(251,320,l),
(307,320,ls),
(438,320,o),
(501,276,o),
(501,191,cs),
(501,95,o),
(438,66,o),
(304,66,cs),
(217,66,l),
(217,0,l)
);
},
{
closed = 1;
nodes = (
(132,0,l),
(132,700,l),
(57,700,l),
(57,0,l)
);
},
{
closed = 1;
nodes = (
(514,634,l),
(514,700,l),
(87,700,l),
(87,634,l)
);
}
);
};
layerId = "A0F3C0B3-6058-4691-93DD-C4034CAB0732";
shapes = (
{
closed = 1;
nodes = (
(337,0,ls),
(489,0,o),
(619,39,o),
(619,203,cs),
(619,339,o),
(535,409,o),
(334,395,c),
(354,360,l),
(576,634,l),
(576,700,l),
(57,700,l),
(57,0,l),
(132,0,l),
(132,634,l),
(527,634,l),
(510,669,l),
(291,396,l),
(291,330,l),
(331,330,ls),
(485,330,o),
(541,296,o),
(541,199,cs),
(541,99,o),
(462,66,o),
(342,66,cs),
(257,66,l),
(257,0,l)
);
}
);
width = 649;
},
{
layerId = "7B07347B-11DE-4909-BA20-F43005BA30D7";
shapes = (
{
closed = 1;
nodes = (
(350,0,ls),
(502,0,o),
(625,50,o),
(625,211,cs),
(625,311,o),
(571,398,o),
(405,395,c),
(430,361,l),
(579,574,l),
(579,700,l),
(52,700,l),
(52,0,l),
(197,0,l),
(197,574,l),
(446,574,l),
(425,612,l),
(273,390,l),
(273,290,l),
(350,290,ls),
(416,290,o),
(474,281,o),
(474,211,cs),
(474,141,o),
(416,126,o),
(350,126,cs),
(243,126,l),
(243,0,l)
);
}
);
width = 660;
},
{
associatedMasterId = "A0F3C0B3-6058-4691-93DD-C4034CAB0732";
layerId = "EEE0BDCA-CE16-4727-9E7F-657734F5FE98";
name = "1 Sep 25 at 15:22";
shapes = (
{
closed = 1;
nodes = (
(304,0,ls),
(456,0,o),
(579,40,o),
(579,191,cs),
(579,303,o),
(487,386,o),
(336,386,c),
(514,634,l),
(449,670,l),
(251,386,l),
(251,320,l),
(307,320,ls),
(438,320,o),
(501,276,o),
(501,191,cs),
(501,95,o),
(438,66,o),
(304,66,cs),
(217,66,l),
(217,0,l)
);
},
{
closed = 1;
nodes = (
(132,0,l),
(132,700,l),
(57,700,l),
(57,0,l)
);
},
{
closed = 1;
nodes = (
(514,634,l),
(514,700,l),
(87,700,l),
(87,634,l)
);
}
);
width = 609;
},
{
associatedMasterId = "7B07347B-11DE-4909-BA20-F43005BA30D7";
layerId = "D0FA7DCE-B912-4F39-9EA5-AD4F04038CE7";
name = "1 Sep 25 at 15:33";
shapes = (
{
closed = 1;
nodes = (
(350,0,ls),
(502,0,o),
(625,50,o),
(625,211,cs),
(625,311,o),
(533,417,o),
(386,395,c),
(398,361,l),
(549,574,l),
(549,700,l),
(52,700,l),
(52,0,l),
(197,0,l),
(197,574,l),
(416,574,l),
(395,612,l),
(253,390,l),
(253,290,l),
(350,290,ls),
(416,290,o),
(474,281,o),
(474,211,cs),
(474,141,o),
(416,126,o),
(350,126,cs),
(243,126,l),
(243,0,l)
);
}
);
width = 660;
}
);
metricRight = "=B";
unicode = 7838;
}
{
color = 6;
glyphname = daggerdbl;
layers = (
{
layerId = "A0F3C0B3-6058-4691-93DD-C4034CAB0732";
shapes = (
{
closed = 1;
nodes = (
(175,-50,l),
(248,-50,l),
(248,750,l),
(175,750,l)
);
},
{
closed = 1;
nodes = (
(20,469,l),
(403,469,l),
(403,535,l),
(20,535,l)
);
},
{
closed = 1;
nodes = (
(20,185,l),
(403,185,l),
(403,251,l),
(20,251,l)
);
}
);
width = 423;
},
{
layerId = "7B07347B-11DE-4909-BA20-F43005BA30D7";
shapes = (
{
closed = 1;
nodes = (
(150,-50,l),
(295,-50,l),
(295,750,l),
(150,750,l)
);
},
{
closed = 1;
nodes = (
(15,446,l),
(430,446,l),
(430,572,l),
(15,572,l)
);
},
{
closed = 1;
nodes = (
(15,146,l),
(430,146,l),
(430,272,l),
(15,272,l)
);
}
);
width = 445;
},
{
associatedMasterId = "7B07347B-11DE-4909-BA20-F43005BA30D7";
layerId = "62D86C78-EC66-4AD2-8E4D-16165837CD0F";
name = "1 Sep 25 at 17:48";
shapes = (
{
closed = 1;
nodes = (
(120,-50,l),
(265,-50,l),
(265,750,l),
(120,750,l)
);
},
{
closed = 1;
nodes = (
(15,496,l),
(370,496,l),
(370,622,l),
(15,622,l)
);
},
{
closed = 1;
nodes = (
(15,281,l),
(370,281,l),
(370,407,l),
(15,407,l)
);
}
);
width = 385;
},
{
associatedMasterId = "A0F3C0B3-6058-4691-93DD-C4034CAB0732";
layerId = "150A45CD-4FA6-44E6-AA76-29FA3FEC123D";
name = "1 Sep 25 at 17:50";
shapes = (
{
closed = 1;
nodes = (
(125,-50,l),
(198,-50,l),
(198,750,l),
(125,750,l)
);
},
{
closed = 1;
nodes = (
(20,536,l),
(303,536,l),
(303,602,l),
(20,602,l)
);
},
{
closed = 1;
nodes = (
(20,367,l),
(303,367,l),
(303,433,l),
(20,433,l)
);
}
);
width = 323;
}
);
metricLeft = "=dagger";
metricRight = "=dagger";
unicode = 8225;
}
{
color = 6;
glyphname = fraction;
layers = (
{
layerId = "A0F3C0B3-6058-4691-93DD-C4034CAB0732";
shapes = (
{
closed = 1;
nodes = (
(-180,0,l),
(-112,0,l),
(278,700,l),
(210,700,l)
);
}
);
width = 92;
},
{
layerId = "7B07347B-11DE-4909-BA20-F43005BA30D7";
shapes = (
{
closed = 1;
nodes = (
(-150,0,l),
(-51,0,l),
(339,700,l),
(240,700,l)
);
}
);
width = 144;
}
);
unicode = 8260;
}
{
color = 6;
glyphname = sixinferior;
layers = (
{
layerId = "7B07347B-11DE-4909-BA20-F43005BA30D7";
shapes = (
{
closed = 1;
nodes = (
(294,251,l),
(282,316,o),
(239,358,o),
(166,358,cs),
(76,358,o),
(21,288,o),
(21,165,cs),
(21,34,o),
(87,-8,o),
(164,-8,cs),
(251,-8,o),
(296,45,o),
(296,117,cs),
(296,185,o),
(253,235,o),
(172,235,cs),
(136,235,o),
(106,222,o),
(85,197,c),
(116,197,l),
(112,249,o),
(137,277,o),
(163,277,cs),
(183,277,o),
(191,265,o),
(193,251,c)
);
},
{
closed = 1;
nodes = (
(127,137,o),
(141,151,o),
(164,151,cs),
(187,151,o),
(201,137,o),
(201,114,cs),
(201,92,o),
(187,77,o),
(164,77,cs),
(141,77,o),
(127,92,o),
(127,115,cs)
);
}
);
userData = {
RMXScaler = {
height = 50;
weight = -270;
width = 50;
};
};
width = 324;
},
{
layerId = "A0F3C0B3-6058-4691-93DD-C4034CAB0732";
shapes = (
{
closed = 1;
nodes = (
(298,251,l),
(286,315,o),
(245,358,o),
(174,358,cs),
(82,358,o),
(33,288,o),
(33,165,cs),
(33,34,o),
(97,-8,o),
(172,-8,cs),
(256,-8,o),
(306,45,o),
(306,113,cs),
(306,182,o),
(256,235,o),
(175,235,cs),
(127,235,o),
(91,210,o),
(77,182,c),
(94,180,l),
(96,268,o),
(132,300,o),
(171,300,cs),
(214,300,o),
(226,273,o),
(230,251,c)
);
},
{
closed = 1;
nodes = (
(104,153,o),
(130,178,o),
(173,178,cs),
(216,178,o),
(242,153,o),
(242,115,cs),
(242,78,o),
(216,50,o),
(172,50,cs),
(130,50,o),
(104,78,o),
(104,116,cs)
);
}
);
userData = {
RMXScaler = {
height = 50;
weight = 10;
width = 50;
};
};
width = 339;
}
);
metricRight = "=O";
unicode = 8326;
userData = {
KernOnSpecialSpacing = {
L = NoKerning;
R = NoKerning;
};
RMXScaler = {
source = six;
};
};
}
{
color = 6;
glyphname = euro;
layers = (
{
layerId = "A0F3C0B3-6058-4691-93DD-C4034CAB0732";
shapes = (
{
closed = 1;
nodes = (
(645,-16,o),
(754,104,o),
(768,285,c),
(691,285,l),
(683,182,o),
(629,56,o),
(448,56,cs),
(271,56,o),
(180,191,o),
(180,351,cs),
(180,509,o),
(271,644,o),
(448,644,cs),
(618,644,o),
(671,531,o),
(685,441,c),
(764,441,l),
(743,609,o),
(636,716,o),
(448,716,cs),
(225,716,o),
(102,552,o),
(102,351,cs),
(102,148,o),
(225,-16,o),
(448,-16,cs)
);
},
{
closed = 1;
nodes = (
(403,229,l),
(403,295,l),
(28,295,l),
(28,229,l)
);
},
{
closed = 1;
nodes = (
(403,375,l),
(403,441,l),
(28,441,l),
(28,375,l)
);
}
);
width = 801;
},
{
layerId = "7B07347B-11DE-4909-BA20-F43005BA30D7";
shapes = (
{
closed = 1;
nodes = (
(629,-16,o),
(738,104,o),
(752,285,c),
(600,285,l),
(592,182,o),
(543,116,o),
(432,116,cs),
(295,116,o),
(237,231,o),
(237,351,cs),
(237,469,o),
(295,584,o),
(432,584,cs),
(532,584,o),
(580,531,o),
(594,441,c),
(748,441,l),
(727,609,o),
(620,716,o),
(432,716,cs),
(209,716,o),
(86,552,o),
(86,351,cs),
(86,148,o),
(209,-16,o),
(432,-16,cs)
);
},
{
closed = 1;
nodes = (
(425,213,l),
(425,313,l),
(23,313,l),
(23,213,l)
);
},
{
closed = 1;
nodes = (
(425,373,l),
(425,473,l),
(23,473,l),
(23,373,l)
);
}
);
width = 780;
},
{
associatedMasterId = "A0F3C0B3-6058-4691-93DD-C4034CAB0732";
layerId = "58AD240B-5B5D-472E-B4AA-9747EEA1A18E";
name = "2 Sep 25 at 13:37";
shapes = (
{
closed = 1;
nodes = (
(702,285,l),
(694,182,o),
(640,56,o),
(459,56,cs),
(282,56,o),
(191,191,o),
(191,351,cs),
(191,509,o),
(282,644,o),
(459,644,cs),
(629,644,o),
(682,531,o),
(696,441,c),
(775,441,l),
(754,609,o),
(647,716,o),
(459,716,cs),
(236,716,o),
(113,552,o),
(113,351,cs),
(113,148,o),
(236,-16,o),
(459,-16,cs),
(656,-16,o),
(765,104,o),
(779,285,c)
);
},
{
closed = 1;
nodes = (
(28,403,l),
(423,403,l),
(423,469,l),
(28,469,l)
);
},
{
closed = 1;
nodes = (
(28,239,l),
(423,239,l),
(423,305,l),
(28,305,l)
);
}
);
width = 812;
},
{
associatedMasterId = "A0F3C0B3-6058-4691-93DD-C4034CAB0732";
layerId = "C97D2A06-69AD-4088-8300-BB84F77E58CF";
name = "2 Sep 25 at 17:32";
shapes = (
{
closed = 1;
nodes = (
(573,-16,o),
(667,105,o),
(679,265,c),
(602,265,l),
(595,180,o),
(555,56,o),
(401,56,cs),
(249,56,o),
(180,171,o),
(180,351,cs),
(180,529,o),
(249,644,o),
(401,644,cs),
(548,644,o),
(585,529,o),
(597,461,c),
(676,461,l),
(658,605,o),
(568,716,o),
(401,716,cs),
(208,716,o),
(102,572,o),
(102,351,cs),
(102,128,o),
(208,-16,o),
(401,-16,cs)
);
},
{
closed = 1;
nodes = (
(403,229,l),
(403,295,l),
(28,295,l),
(28,229,l)
);
},
{
closed = 1;
nodes = (
(403,375,l),
(403,441,l),
(28,441,l),
(28,375,l)
);
}
);
width = 712;
}
);
metricRight = "=C";
unicode = 8364;
}
{
color = 6;
glyphname = trademark;
kernLeft = KO_trademark;
layers = (
{
anchors = (
{
name = bottom;
pos = (296,0);
},
{
name = center;
pos = (296,350);
},
{
name = top;
pos = (296,700);
}
);
layerId = "A0F3C0B3-6058-4691-93DD-C4034CAB0732";
shapes = (
{
closed = 1;
nodes = (
(143,328,l),
(204,328,l),
(204,700,l),
(143,700,l)
);
},
{
closed = 1;
nodes = (
(35,644,l),
(312,644,l),
(312,700,l),
(35,700,l)
);
},
{
closed = 1;
nodes = (
(538,328,l),
(418,700,l),
(357,700,l),
(479,328,l)
);
},
{
closed = 1;
nodes = (
(678,700,l),
(616,700,l),
(497,328,l),
(555,328,l)
);
},
{
closed = 1;
nodes = (
(342,328,l),
(399,328,l),
(399,700,l),
(342,700,l)
);
},
{
closed = 1;
nodes = (
(635,328,l),
(692,328,l),
(692,700,l),
(635,700,l)
);
}
);
width = 732;
},
{
anchors = (
{
name = bottom;
pos = (321,0);
},
{
name = center;
pos = (321,350);
},
{
name = top;
pos = (321,700);
}
);
layerId = "7B07347B-11DE-4909-BA20-F43005BA30D7";
shapes = (
{
closed = 1;
nodes = (
(136,328,l),
(233,328,l),
(233,700,l),
(136,700,l)
);
},
{
closed = 1;
nodes = (
(30,613,l),
(339,613,l),
(339,700,l),
(30,700,l)
);
},
{
closed = 1;
nodes = (
(601,328,l),
(510,700,l),
(411,700,l),
(508,328,l)
);
},
{
closed = 1;
nodes = (
(713,700,l),
(614,700,l),
(523,328,l),
(617,328,l)
);
},
{
closed = 1;
nodes = (
(356,328,l),
(450,328,l),
(450,700,l),
(356,700,l)
);
},
{
closed = 1;
nodes = (
(674,328,l),
(769,328,l),
(769,700,l),
(674,700,l)
);
}
);
width = 804;
}
);
unicode = 8482;
}
{
color = 6;
glyphname = upArrow;
layers = (
{
layerId = "A0F3C0B3-6058-4691-93DD-C4034CAB0732";
shapes = (
{
closed = 1;
nodes = (
(45,453,l),
(91,407,l),
(303,619,l),
(271,632,l),
(271,0,l),
(345,0,l),
(345,632,l),
(313,619,l),
(525,407,l),
(571,453,l),
(308,716,l)
);
}
);
width = 616;
},
{
layerId = "7B07347B-11DE-4909-BA20-F43005BA30D7";
shapes = (
{
closed = 1;
nodes = (
(40,453,l),
(126,367,l),
(263,504,l),
(231,517,l),
(231,0,l),
(375,0,l),
(375,517,l),
(343,504,l),
(480,367,l),
(566,453,l),
(303,716,l)
);
}
);
width = 606;
}
);
unicode = 8593;
}
{
color = 6;
glyphname = upDownArrow;
layers = (
{
layerId = "A0F3C0B3-6058-4691-93DD-C4034CAB0732";
shapes = (
{
closed = 1;
nodes = (
(571,247,l),
(525,293,l),
(345,113,l),
(345,587,l),
(525,407,l),
(571,453,l),
(308,716,l),
(45,453,l),
(91,407,l),
(271,587,l),
(271,113,l),
(91,293,l),
(45,247,l),
(308,-16,l)
);
}
);
width = 616;
},
{
layerId = "7B07347B-11DE-4909-BA20-F43005BA30D7";
shapes = (
{
closed = 1;
nodes = (
(566,247,l),
(480,333,l),
(375,228,l),
(375,472,l),
(480,367,l),
(566,453,l),
(303,716,l),
(40,453,l),
(126,367,l),
(231,472,l),
(231,228,l),
(126,333,l),
(40,247,l),
(303,-16,l)
);
}
);
width = 606;
}
);
unicode = 8597;
}
{
color = 6;
glyphname = partialdiff;
layers = (
{
layerId = "A0F3C0B3-6058-4691-93DD-C4034CAB0732";
shapes = (
{
closed = 1;
nodes = (
(442,-16,o),
(555,98,o),
(555,284,cs),
(555,534,o),
(453,750,o),
(180,750,c),
(180,685,l),
(357,681,o),
(447,573,o),
(476,406,c),
(492,401,l),
(450,498,o),
(368,546,o),
(282,546,cs),
(133,546,o),
(30,428,o),
(30,264,cs),
(30,101,o),
(133,-16,o),
(282,-16,cs)
);
},
{
closed = 1;
nodes = (
(180,52,o),
(106,131,o),
(106,264,cs),
(106,398,o),
(180,478,o),
(287,478,cs),
(416,478,o),
(482,388,o),
(482,264,cs),
(482,141,o),
(416,52,o),
(287,52,cs)
);
}
);
width = 608;
},
{
layerId = "7B07347B-11DE-4909-BA20-F43005BA30D7";
shapes = (
{
closed = 1;
nodes = (
(437,-16,o),
(550,98,o),
(550,284,cs),
(550,534,o),
(448,750,o),
(175,750,c),
(175,625,l),
(311,625,o),
(387,563,o),
(409,406,c),
(487,401,l),
(445,498,o),
(363,546,o),
(277,546,cs),
(128,546,o),
(25,428,o),
(25,264,cs),
(25,101,o),
(128,-16,o),
(277,-16,cs)
);
},
{
closed = 1;
nodes = (
(233,112,o),
(171,151,o),
(171,264,cs),
(171,378,o),
(233,418,o),
(292,418,cs),
(351,418,o),
(407,368,o),
(407,264,cs),
(407,151,o),
(351,112,o),
(292,112,cs)
);
}
);
width = 598;
},
{
associatedMasterId = "A0F3C0B3-6058-4691-93DD-C4034CAB0732";
layerId = "09EFBB79-5DBD-4AA3-AEDC-3F1EDF78A7BC";
name = "2 Sep 25 at 12:03";
shapes = (
{
closed = 1;
nodes = (
(442,-16,o),
(555,98,o),
(555,284,cs),
(555,534,o),
(453,750,o),
(180,750,c),
(180,685,l),
(366,685,o),
(457,573,o),
(479,406,c),
(492,401,l),
(450,498,o),
(368,546,o),
(282,546,cs),
(133,546,o),
(30,428,o),
(30,264,cs),
(30,101,o),
(133,-16,o),
(282,-16,cs)
);
},
{
closed = 1;
nodes = (
(180,52,o),
(106,131,o),
(106,264,cs),
(106,398,o),
(180,478,o),
(287,478,cs),
(416,478,o),
(482,388,o),
(482,264,cs),
(482,141,o),
(416,52,o),
(287,52,cs)
);
}
);
width = 608;
}
);
metricRight = "=d";
unicode = 8706;
}
{
color = 6;
glyphname = four.tf;
layers = (
{
layerId = "A0F3C0B3-6058-4691-93DD-C4034CAB0732";
shapes = (
{
closed = 1;
nodes = (
(397,0,l),
(470,0,l),
(470,700,l),
(397,700,l)
);
},
{
closed = 1;
nodes = (
(65,176,l),
(606,176,l),
(606,242,l),
(65,242,l)
);
},
{
closed = 1;
nodes = (
(20,230,l),
(20,176,l),
(67,176,l),
(446,700,l),
(367,700,l)
);
}
);
width = 630;
},
{
layerId = "7B07347B-11DE-4909-BA20-F43005BA30D7";
shapes = (
{
closed = 1;
nodes = (
(357,0,l),
(500,0,l),
(500,700,l),
(357,700,l)
);
},
{
closed = 1;
nodes = (
(25,156,l),
(606,156,l),
(606,282,l),
(25,282,l)
);
},
{
closed = 1;
nodes = (
(25,282,l),
(25,156,l),
(93,156,l),
(482,700,l),
(328,700,l)
);
}
);
width = 630;
}
);
}
{
color = 6;
glyphname = one.dnom;
layers = (
{
layerId = "7B07347B-11DE-4909-BA20-F43005BA30D7";
shapes = (
{
closed = 1;
nodes = (
(94,0,l),
(201,0,l),
(201,350,l),
(94,350,l)
);
},
{
closed = 1;
nodes = (
(10,259,l),
(107,259,l),
(107,350,l),
(10,350,l)
);
},
{
closed = 1;
nodes = (
(10,0,l),
(107,0,l),
(107,85,l),
(10,85,l)
);
},
{
closed = 1;
nodes = (
(187,0,l),
(285,0,l),
(285,85,l),
(187,85,l)
);
}
);
userData = {
RMXScaler = {
height = 50;
weight = -270;
width = 50;
};
};
width = 295;
},
{
layerId = "A0F3C0B3-6058-4691-93DD-C4034CAB0732";
shapes = (
{
closed = 1;
nodes = (
(99,0,l),
(162,0,l),
(162,350,l),
(99,350,l)
);
},
{
closed = 1;
nodes = (
(15,295,l),
(112,295,l),
(112,350,l),
(15,350,l)
);
},
{
closed = 1;
nodes = (
(15,0,l),
(112,0,l),
(112,56,l),
(15,56,l)
);
},
{
closed = 1;
nodes = (
(148,0,l),
(246,0,l),
(246,56,l),
(148,56,l)
);
}
);
userData = {
RMXScaler = {
height = 50;
weight = 10;
width = 50;
};
};
width = 261;
}
);
userData = {
KernOnSpecialSpacing = {
L = NoKerning;
R = NoKerning;
};
RMXScaler = {
source = one;
};
};
}
{
color = 6;
glyphname = periodcentered.loclCAT.case;
kernLeft = KO_periodcentered;
kernRight = KO_period;
layers = (
{
layerId = "A0F3C0B3-6058-4691-93DD-C4034CAB0732";
shapes = (
{
closed = 1;
nodes = (
(35,233,l),
(124,233,l),
(124,326,l),
(35,326,l)
);
}
);
width = 159;
},
{
layerId = "7B07347B-11DE-4909-BA20-F43005BA30D7";
shapes = (
{
closed = 1;
nodes = (
(30,203,l),
(183,203,l),
(183,356,l),
(30,356,l)
);
}
);
width = 213;
}
);
}
{
color = 6;
glyphname = seven.tf;
layers = (
{
layerId = "A0F3C0B3-6058-4691-93DD-C4034CAB0732";
shapes = (
{
closed = 1;
nodes = (
(324,0,l),
(324,314,o),
(448,519,o),
(566,631,c),
(566,700,l),
(540,700,l),
(385,560,o),
(247,303,o),
(247,0,c)
);
},
{
closed = 1;
nodes = (
(41,634,l),
(548,634,l),
(548,700,l),
(41,700,l)
);
}
);
width = 630;
},
{
layerId = "7B07347B-11DE-4909-BA20-F43005BA30D7";
shapes = (
{
closed = 1;
nodes = (
(381,0,l),
(381,314,o),
(475,489,o),
(593,601,c),
(593,700,l),
(489,700,l),
(334,560,o),
(229,303,o),
(229,0,c)
);
},
{
closed = 1;
nodes = (
(38,574,l),
(555,574,l),
(555,700,l),
(38,700,l)
);
}
);
width = 630;
}
);
}
{
color = 6;
glyphname = six.tf;
layers = (
{
layerId = "A0F3C0B3-6058-4691-93DD-C4034CAB0732";
shapes = (
{
closed = 1;
nodes = (
(572,502,l),
(548,630,o),
(465,716,o),
(324,716,cs),
(141,716,o),
(42,577,o),
(42,331,cs),
(42,67,o),
(170,-16,o),
(320,-16,cs),
(490,-16,o),
(589,90,o),
(589,227,cs),
(589,364,o),
(490,470,o),
(326,470,cs),
(206,470,o),
(116,390,o),
(92,320,c),
(118,322,l),
(118,549,o),
(196,644,o),
(319,644,cs),
(441,644,o),
(478,549,o),
(487,502,c)
);
},
{
closed = 1;
nodes = (
(134,328,o),
(198,400,o),
(322,400,cs),
(446,400,o),
(511,328,o),
(511,230,cs),
(511,132,o),
(446,56,o),
(321,56,cs),
(198,56,o),
(134,132,o),
(134,232,cs)
);
}
);
width = 630;
},
{
layerId = "7B07347B-11DE-4909-BA20-F43005BA30D7";
shapes = (
{
closed = 1;
nodes = (
(572,502,l),
(548,630,o),
(465,716,o),
(324,716,cs),
(141,716,o),
(42,577,o),
(42,331,cs),
(42,67,o),
(170,-16,o),
(320,-16,cs),
(490,-16,o),
(589,90,o),
(589,227,cs),
(589,364,o),
(490,470,o),
(326,470,cs),
(242,470,o),
(175,434,o),
(144,380,c),
(182,373,l),
(186,528,o),
(255,584,o),
(319,584,cs),
(388,584,o),
(408,549,o),
(417,502,c)
);
},
{
closed = 1;
nodes = (
(204,300,o),
(250,340,o),
(321,340,cs),
(392,340,o),
(438,300,o),
(438,230,cs),
(438,164,o),
(392,116,o),
(320,116,cs),
(250,116,o),
(204,164,o),
(204,232,cs)
);
}
);
width = 630;
}
);
}
{
color = 6;
glyphname = three.tf;
layers = (
{
layerId = "A0F3C0B3-6058-4691-93DD-C4034CAB0732";
shapes = (
{
closed = 1;
nodes = (
(251,320,l),
(417,320,o),
(504,295,o),
(504,200,cs),
(504,122,o),
(439,56,o),
(321,56,cs),
(202,56,o),
(126,126,o),
(120,222,c),
(38,222,l),
(38,81,o),
(166,-16,o),
(316,-16,cs),
(486,-16,o),
(585,78,o),
(585,190,cs),
(585,279,o),
(512,359,o),
(372,367,c),
(371,336,l),
(507,345,o),
(580,421,o),
(580,510,cs),
(580,622,o),
(477,716,o),
(317,716,cs),
(167,716,o),
(38,619,o),
(38,478,c),
(120,478,l),
(116,574,o),
(203,644,o),
(322,644,cs),
(437,644,o),
(499,581,o),
(499,510,cs),
(499,415,o),
(417,390,o),
(251,390,c)
);
}
);
width = 630;
},
{
layerId = "7B07347B-11DE-4909-BA20-F43005BA30D7";
shapes = (
{
closed = 1;
nodes = (
(255,290,l),
(391,290,o),
(438,265,o),
(438,200,cs),
(438,152,o),
(403,116,o),
(325,116,cs),
(246,116,o),
(200,156,o),
(194,222,c),
(42,222,l),
(42,81,o),
(170,-16,o),
(320,-16,cs),
(490,-16,o),
(589,78,o),
(589,190,cs),
(589,279,o),
(536,359,o),
(396,367,c),
(395,336,l),
(531,345,o),
(584,421,o),
(584,510,cs),
(584,622,o),
(481,716,o),
(321,716,cs),
(171,716,o),
(42,619,o),
(42,478,c),
(194,478,l),
(200,544,o),
(247,584,o),
(326,584,cs),
(401,584,o),
(433,551,o),
(433,510,cs),
(433,445,o),
(391,420,o),
(255,420,c)
);
}
);
width = 630;
}
);
}
{
color = 6;
glyphname = two.tf;
layers = (
{
layerId = "A0F3C0B3-6058-4691-93DD-C4034CAB0732";
shapes = (
{
closed = 1;
nodes = (
(143,0,l),
(143,309,o),
(574,233,o),
(574,508,cs),
(574,613,o),
(493,716,o),
(323,716,cs),
(173,716,o),
(63,619,o),
(63,478,c),
(140,478,l),
(146,574,o),
(203,644,o),
(328,644,cs),
(429,644,o),
(496,588,o),
(496,504,cs),
(496,297,o),
(60,350,o),
(55,0,c)
);
},
{
closed = 1;
nodes = (
(55,0,l),
(576,0,l),
(576,68,l),
(138,68,l)
);
}
);
width = 630;
},
{
layerId = "7B07347B-11DE-4909-BA20-F43005BA30D7";
shapes = (
{
closed = 1;
nodes = (
(219,0,l),
(219,299,o),
(583,233,o),
(583,481,cs),
(583,613,o),
(487,716,o),
(317,716,cs),
(167,716,o),
(52,619,o),
(52,478,c),
(204,478,l),
(210,544,o),
(243,584,o),
(322,584,cs),
(392,584,o),
(432,548,o),
(432,481,cs),
(432,329,o),
(51,350,o),
(46,0,c)
);
},
{
closed = 1;
nodes = (
(46,0,l),
(585,0,l),
(585,126,l),
(129,126,l)
);
}
);
width = 630;
}
);
}
{
color = 6;
glyphname = y.ss01;
kernLeft = KO_v;
kernRight = KO_v;
layers = (
{
anchors = (
{
name = bottom;
pos = (267,0);
},
{
name = top;
pos = (267,560);
}
);
layerId = "A0F3C0B3-6058-4691-93DD-C4034CAB0732";
shapes = (
{
closed = 1;
nodes = (
(321,0,l),
(511,560,l),
(431,560,l),
(248,0,l)
);
},
{
closed = 1;
nodes = (
(257,-200,l),
(337,48,l),
(266,48,l),
(206,-138,l),
(58,-138,l),
(58,-200,l)
);
},
{
closed = 1;
nodes = (
(286,0,l),
(103,560,l),
(23,560,l),
(213,0,l)
);
}
);
width = 534;
},
{
anchors = (
{
name = bottom;
pos = (285,0);
},
{
name = top;
pos = (285,560);
}
);
layerId = "7B07347B-11DE-4909-BA20-F43005BA30D7";
shapes = (
{
closed = 1;
nodes = (
(381,0,l),
(551,560,l),
(398,560,l),
(248,0,l)
);
},
{
closed = 1;
nodes = (
(316,-200,l),
(396,48,l),
(255,48,l),
(211,-78,l),
(87,-78,l),
(87,-200,l)
);
},
{
closed = 1;
nodes = (
(321,0,l),
(171,560,l),
(18,560,l),
(188,0,l)
);
}
);
width = 569;
}
);
metricLeft = "=y";
metricRight = "=y";
}
